<?xml version="1.0" encoding="UTF-8" standalone="no"?>
<!-- Generator: Adobe Illustrator 16.0.0, SVG Export Plug-In . SVG Version: 6.00 Build 0)  -->

<svg
   xmlns:dc="http://purl.org/dc/elements/1.1/"
   xmlns:cc="http://creativecommons.org/ns#"
   xmlns:rdf="http://www.w3.org/1999/02/22-rdf-syntax-ns#"
   xmlns:svg="http://www.w3.org/2000/svg"
   xmlns="http://www.w3.org/2000/svg"
   xmlns:xlink="http://www.w3.org/1999/xlink"
   xmlns:sodipodi="http://sodipodi.sourceforge.net/DTD/sodipodi-0.dtd"
   xmlns:inkscape="http://www.inkscape.org/namespaces/inkscape"
   version="1.1"
   id="Layer_1"
   x="0px"
   y="0px"
   width="123px"
   height="97px"
   viewBox="0 0 123 97"
   enable-background="new 0 0 123 97"
   xml:space="preserve"
   inkscape:version="0.48.4 r9939"
   sodipodi:docname="defrost_max_on.svg"><metadata
     id="metadata84"><rdf:RDF><cc:Work
         rdf:about=""><dc:format>image/svg+xml</dc:format><dc:type
           rdf:resource="http://purl.org/dc/dcmitype/StillImage" /></cc:Work></rdf:RDF></metadata><defs
     id="defs82"><defs
       id="defs36"><filter
         height="96.508"
         width="123"
         y="0.222"
         x="0"
         filterUnits="userSpaceOnUse"
         id="Adobe_OpacityMaskFilter"><feColorMatrix
           id="feColorMatrix39"
           result="source"
           color-interpolation-filters="sRGB"
           values="-1 0 0 0 1  0 -1 0 0 1  0 0 -1 0 1  0 0 0 1 0"
           type="matrix" /></filter></defs><filter
       id="filter3843"
       inkscape:label="Inner Glow"
       inkscape:menu="Shadows and Glows"
       inkscape:menu-tooltip="Adds a colorizable glow inside"
       color-interpolation-filters="sRGB"><feGaussianBlur
         id="feGaussianBlur3845"
         stdDeviation="12"
         result="result8" /><feComposite
         id="feComposite3847"
         in2="result8"
         result="result6"
         in="SourceGraphic"
         operator="in" /><feComposite
         id="feComposite3849"
         in2="result6"
         operator="in"
         result="result11" /><feFlood
         id="feFlood3851"
         result="result10"
         in="result11"
         flood-opacity="1"
         flood-color="rgb(83,181,206)" /><feBlend
         id="feBlend3853"
         in2="result10"
         mode="normal"
         in="result11"
         result="result12" /><feComposite
         id="feComposite3855"
         in2="SourceGraphic"
         result="result2"
         operator="in"
         in="result12" /></filter><filter
       id="filter3857"
       inkscape:label="Inner Glow"
       inkscape:menu="Shadows and Glows"
       inkscape:menu-tooltip="Adds a colorizable glow inside"
       color-interpolation-filters="sRGB"><feGaussianBlur
         id="feGaussianBlur3859"
         stdDeviation="10"
         result="result8" /><feComposite
         id="feComposite3861"
         in2="result8"
         result="result6"
         in="SourceGraphic"
         operator="in" /><feComposite
         id="feComposite3863"
         in2="result6"
         operator="in"
         result="result11" /><feFlood
         id="feFlood3865"
         result="result10"
         in="result11"
         flood-opacity="1"
         flood-color="rgb(255,222,85)" /><feBlend
         id="feBlend3867"
         in2="result10"
         mode="normal"
         in="result11"
         result="result12" /><feComposite
         id="feComposite3869"
         in2="SourceGraphic"
         result="result2"
         operator="in"
         in="result12" /></filter></defs><sodipodi:namedview
     pagecolor="#ffffff"
     bordercolor="#666666"
     borderopacity="1"
     objecttolerance="10"
     gridtolerance="10"
     guidetolerance="10"
     inkscape:pageopacity="0"
     inkscape:pageshadow="2"
     inkscape:window-width="1360"
     inkscape:window-height="797"
     id="namedview80"
     showgrid="false"
     inkscape:zoom="2.3739837"
     inkscape:cx="10.741438"
     inkscape:cy="48.5"
     inkscape:window-x="75"
     inkscape:window-y="34"
     inkscape:window-maximized="0"
     inkscape:current-layer="Layer_1" /><linearGradient
     id="SVGID_1_"
     gradientUnits="userSpaceOnUse"
     x1="15.1289"
     y1="1640"
     x2="15.1288"
     y2="740.8912"
     gradientTransform="matrix(1 0 0 1 468 -694)"><stop
       offset="0"
       style="stop-color:#041724"
       id="stop4" /><stop
       offset="1"
       style="stop-color:#000000"
       id="stop6" /></linearGradient><rect
     x="123.129"
     display="none"
     fill="url(#SVGID_1_)"
     width="720"
     height="1001"
     id="rect8" /><path
     display="none"
     fill="#31ABFF"
     fill-opacity="0.29"
     stroke="#31ABFF"
     stroke-width="0.8902"
     stroke-miterlimit="10"
     stroke-opacity="0.64"
     d="  M698.129,643.039v95.783h122V657.74C780.41,651.722,739.326,646.832,698.129,643.039z"
     id="path10" /><path
     display="none"
     fill="#31ABFF"
     fill-opacity="0.29"
     stroke="#31ABFF"
     stroke-width="0.8902"
     stroke-miterlimit="10"
     stroke-opacity="0.64"
     d="  M698.129,643.039v95.783h122V657.74C780.41,651.722,739.326,646.832,698.129,643.039z"
     id="path12" /><path
     display="none"
     fill="#31ABFF"
     d="M747.514,675.48c-0.104-2.278-0.233-5.027-0.209-7.41h-0.079  c-0.574,2.146-1.31,4.527-2.095,6.755l-2.564,7.646h-2.487l-2.356-7.541c-0.681-2.251-1.309-4.66-1.778-6.857h-0.055  c-0.077,2.304-0.183,5.104-0.313,7.515l-0.396,7.096h-3.011l1.178-17.646h4.242l2.307,7.097c0.628,2.068,1.178,4.163,1.622,6.127  h0.077c0.474-1.912,1.074-4.085,1.755-6.151l2.437-7.07h4.188l1.021,17.647h-3.142L747.514,675.48z"
     id="path14" /><path
     display="none"
     fill="#31ABFF"
     d="M757.646,677.68l-1.52,5.001h-3.325l5.656-17.646h4.11l5.732,17.646h-3.456l-1.598-5.001  H757.646z M762.701,675.244l-1.389-4.347c-0.341-1.073-0.629-2.277-0.892-3.301h-0.052c-0.262,1.021-0.523,2.252-0.838,3.301  l-1.361,4.347H762.701z"
     id="path16" /><path
     display="none"
     fill="#31ABFF"
     d="M779.695,682.681l-1.911-3.509c-0.76-1.361-1.257-2.304-1.755-3.325h-0.078  c-0.419,1.021-0.893,1.964-1.6,3.325l-1.754,3.509h-3.69l5.235-8.929l-5.025-8.72h3.689l1.912,3.64  c0.575,1.102,0.995,1.964,1.466,2.959h0.055c0.471-1.1,0.838-1.885,1.388-2.959l1.885-3.64h3.692l-5.158,8.615l5.367,9.031  L779.695,682.681L779.695,682.681z"
     id="path18" /><path
     display="none"
     fill="#31ABFF"
     d="M773.577,723.188c-0.509,0-1.007-0.108-1.483-0.323c-8.057-3.664-16.873-3.663-24.926-0.001  c-0.478,0.216-0.977,0.325-1.484,0.325c-1.7,0-3.187-1.207-3.778-3.075l-6.004-19.563c-0.773-2.435,0.854-5.537,3.557-6.764  c13.016-5.92,27.331-5.92,40.349,0c2.702,1.227,4.329,4.329,3.554,6.775l-5.996,19.538  C776.762,721.979,775.279,723.188,773.577,723.188z M759.629,717.658c4.595,0,9.127,1.002,13.473,2.979  c0.758,0.345,1.594-0.218,1.928-1.266l5.996-19.54c0.369-1.165-0.509-3.04-2.23-3.822c-12.381-5.631-25.948-5.631-38.327,0  c-1.725,0.782-2.602,2.657-2.233,3.813l6.004,19.563c0.328,1.032,1.156,1.604,1.923,1.253  C750.501,718.66,755.035,717.658,759.629,717.658z"
     id="path20" /><path
     display="none"
     fill="#31ABFF"
     d="M750.686,703.627l3.012,0.176l-1.854-5.905l-6.055,4.574l2.896,0.903  c-6.05,8.577,7.235,16.625,0.382,26.625c0.571,0,1.298,0,2.209,0C758.053,720,745.121,712.109,750.686,703.627z"
     id="path22" /><path
     display="none"
     fill="#31ABFF"
     d="M759.294,703.627l3.01,0.176l-1.854-5.905l-6.058,4.574l2.897,0.903  c-6.049,8.577,7.235,16.625,0.382,26.625c0.574,0,1.297,0,2.209,0C766.661,720,753.73,712.109,759.294,703.627z"
     id="path24" /><path
     display="none"
     fill="#31ABFF"
     d="M767.904,703.627l3.008,0.176l-1.854-5.905l-6.055,4.574l2.897,0.903  c-6.052,8.577,7.233,16.625,0.38,26.625c0.571,0,1.298,0,2.209,0C775.269,720,762.336,712.109,767.904,703.627z"
     id="path26" /><path
     d="m 0.5,0.77 v 95.46 h 122 V 15.47 C 83.5,9.452 42.5,4.563 0.5,0.77 z"
     id="path32"
     inkscape:connector-curvature="0"
     style="opacity:0.80000000000000004;fill:#000000;fill-opacity:1;stroke:#ffffff;stroke-opacity:1;filter:url(#filter3843)" /><path
     stroke-miterlimit="10"
     d="m 0.5,0.77 v 95.46 h 122 V 15.47 C 83.5,9.452 42.5,4.563 0.5,0.77 z"
     id="path34"
     inkscape:connector-curvature="0"
     style="fill:#000000;stroke:#ffffff;stroke-miterlimit:10;fill-opacity:1;opacity:0.80000000000000004;stroke-opacity:1;filter:url(#filter3843)" /><g
     style="opacity:0.75"
     id="g46"
     mask="url(#SVGID_2_)"><path
       style="opacity:0.8;fill:#53b5ce"
       inkscape:connector-curvature="0"
       id="path48"
       d="m 0.5,0.77 v 95.46 h 122 V 15.47 C 83.5,9.452 42.5,4.563 0.5,0.77 z" /><path
       style="fill:none;stroke:#53b5ce;stroke-miterlimit:10"
       inkscape:connector-curvature="0"
       id="path50"
       d="m 0.5,0.77 v 95.46 h 122 V 15.47 C 83.5,9.452 42.5,4.563 0.5,0.77 z"
       stroke-miterlimit="10" /></g><path
     fill="none"
     stroke="#FFFFFF"
     stroke-miterlimit="10"
     d="M0.5,0.77V96.23h122v-80.76C83.5,9.452,42.5,4.563,0.5,0.77z"
     id="path52" /><path
     fill="#FFFFFF"
     d="M50.385,33.211c-0.104-2.278-0.233-5.027-0.209-7.41h-0.079c-0.574,2.146-1.31,4.527-2.095,6.755  l-2.564,7.646H42.95l-2.356-7.541c-0.681-2.251-1.309-4.66-1.778-6.857h-0.055c-0.077,2.304-0.183,5.104-0.313,7.515l-0.396,7.096  h-3.011l1.178-17.646h4.242l2.307,7.097c0.628,2.068,1.178,4.163,1.622,6.127h0.077c0.474-1.912,1.074-4.085,1.755-6.151l2.437-7.07  h4.188l1.021,17.647h-3.142L50.385,33.211z"
     id="path54" /><path
     fill="#FFFFFF"
     d="M60.518,35.41l-1.52,5.001h-3.325l5.656-17.646h4.11l5.732,17.646h-3.456l-1.598-5.001H60.518z   M65.572,32.975l-1.389-4.347c-0.341-1.073-0.629-2.277-0.892-3.301H63.24c-0.262,1.021-0.523,2.252-0.838,3.301l-1.361,4.347  H65.572z"
     id="path56" /><path
     fill="#FFFFFF"
     d="M82.566,40.411l-1.911-3.509c-0.76-1.361-1.257-2.304-1.755-3.325h-0.078  c-0.419,1.021-0.893,1.964-1.6,3.325l-1.754,3.509h-3.69l5.235-8.929l-5.025-8.72h3.689l1.912,3.64  c0.575,1.102,0.995,1.964,1.466,2.959h0.055c0.471-1.1,0.838-1.885,1.388-2.959l1.885-3.64h3.692l-5.158,8.615l5.367,9.031  L82.566,40.411L82.566,40.411z"
     id="path58" /><path
     fill="#FFFFFF"
     d="M76.448,80.918c-0.509,0-1.007-0.108-1.483-0.323c-8.057-3.664-16.873-3.663-24.926-0.001  c-0.478,0.216-0.977,0.325-1.484,0.325c-1.7,0-3.187-1.207-3.778-3.075L38.772,58.28c-0.773-2.435,0.854-5.537,3.557-6.764  c13.016-5.92,27.331-5.92,40.349,0c2.702,1.227,4.329,4.329,3.554,6.775L80.235,77.83C79.633,79.709,78.15,80.918,76.448,80.918z   M62.5,75.389c4.595,0,9.127,1.002,13.473,2.979c0.758,0.345,1.594-0.218,1.928-1.266l5.996-19.54  c0.369-1.165-0.509-3.04-2.23-3.822c-12.381-5.631-25.948-5.631-38.327,0c-1.725,0.782-2.602,2.657-2.233,3.813l6.004,19.563  c0.328,1.032,1.156,1.604,1.923,1.253C53.372,76.391,57.906,75.389,62.5,75.389z"
     id="path60" /><path
     fill="#FFFFFF"
     d="M53.557,61.357l3.012,0.176l-1.854-5.905l-6.055,4.574l2.896,0.903c-6.05,8.577,7.235,16.625,0.382,26.625  c0.571,0,1.298,0,2.209,0C60.924,77.73,47.992,69.84,53.557,61.357z"
     id="path62" /><path
     fill="#FFFFFF"
     d="M62.165,61.357l3.01,0.176l-1.854-5.905l-6.058,4.574l2.897,0.903c-6.049,8.577,7.235,16.625,0.382,26.625  c0.574,0,1.297,0,2.209,0C69.532,77.73,56.602,69.84,62.165,61.357z"
     id="path64" /><path
     fill="#FFFFFF"
     d="M70.775,61.357l3.008,0.176l-1.854-5.905l-6.055,4.574l2.897,0.903c-6.052,8.577,7.233,16.625,0.38,26.625  c0.571,0,1.298,0,2.209,0C78.14,77.73,65.207,69.84,70.775,61.357z"
     id="path66" /><text
     transform="matrix(1 0 0 1 730.7559 682.6807)"
     display="none"
     fill="#31ABFF"
     enable-background="new    "
     font-family="'MyriadPro-Semibold'"
     font-size="26.1844"
     id="text68">MAX</text>
<path
     display="none"
     fill="none"
     stroke="#31ABFF"
     stroke-width="2.4433"
     stroke-miterlimit="10"
     d="M776.192,719.741  c-0.579,1.821-2.173,2.648-3.598,2.008c-8.409-3.825-17.521-3.825-25.935,0c-1.42,0.643-3.018-0.187-3.595-2.008  c-2-6.52-3.999-13.035-6-19.552c-0.577-1.816,0.694-4.298,2.894-5.293c12.758-5.805,26.58-5.805,39.338,0  c2.197,0.995,3.473,3.477,2.896,5.293C780.191,706.706,778.192,713.224,776.192,719.741z"
     id="path70" /><path
     display="none"
     fill="#31ABFF"
     d="M750.686,703.627l3.012,0.176l-1.854-5.905l-6.055,4.574l2.896,0.903  c-6.05,8.577,7.235,16.625,0.382,26.625c0.571,0,1.298,0,2.209,0C758.053,720,745.121,712.109,750.686,703.627z"
     id="path72" /><path
     display="none"
     fill="#31ABFF"
     d="M759.294,703.627l3.01,0.176l-1.854-5.905l-6.058,4.574l2.897,0.903  c-6.049,8.577,7.235,16.625,0.382,26.625c0.574,0,1.297,0,2.209,0C766.661,720,753.73,712.109,759.294,703.627z"
     id="path74" /><path
     display="none"
     fill="#31ABFF"
     d="M767.904,703.627l3.008,0.176l-1.854-5.905l-6.055,4.574l2.897,0.903  c-6.052,8.577,7.233,16.625,0.38,26.625c0.571,0,1.298,0,2.209,0C775.269,720,762.336,712.109,767.904,703.627z"
     id="path76" /><path
     display="none"
     fill="none"
     stroke="#00507F"
     stroke-miterlimit="10"
     d="M968.129,664.752  C828.971,627.465,638.581,610,484.129,610s-344.841,17.465-484,54.752"
     id="path78" /></svg>