<?xml version="1.0" encoding="UTF-8" standalone="no"?>
<!-- Generator: Adobe Illustrator 16.0.0, SVG Export Plug-In . SVG Version: 6.00 Build 0)  -->

<svg
   xmlns:dc="http://purl.org/dc/elements/1.1/"
   xmlns:cc="http://creativecommons.org/ns#"
   xmlns:rdf="http://www.w3.org/1999/02/22-rdf-syntax-ns#"
   xmlns:svg="http://www.w3.org/2000/svg"
   xmlns="http://www.w3.org/2000/svg"
   xmlns:xlink="http://www.w3.org/1999/xlink"
   xmlns:sodipodi="http://sodipodi.sourceforge.net/DTD/sodipodi-0.dtd"
   xmlns:inkscape="http://www.inkscape.org/namespaces/inkscape"
   version="1.1"
   id="Layer_1"
   x="0px"
   y="0px"
   width="123px"
   height="88px"
   viewBox="0 0 123 88"
   enable-background="new 0 0 123 88"
   xml:space="preserve"
   inkscape:version="0.48.4 r9939"
   sodipodi:docname="defrost_front_on.svg"><metadata
     id="metadata78"><rdf:RDF><cc:Work
         rdf:about=""><dc:format>image/svg+xml</dc:format><dc:type
           rdf:resource="http://purl.org/dc/dcmitype/StillImage" /></cc:Work></rdf:RDF></metadata><defs
     id="defs76"><defs
       id="defs40"><filter
         id="Adobe_OpacityMaskFilter"
         filterUnits="userSpaceOnUse"
         x="0.5"
         y="0.5"
         width="122"
         height="87"
         color-interpolation-filters="sRGB"><feColorMatrix
           type="matrix"
           values="-1 0 0 0 1  0 -1 0 0 1  0 0 -1 0 1  0 0 0 1 0"
           color-interpolation-filters="sRGB"
           result="source"
           id="feColorMatrix43" /></filter></defs><filter
       id="filter3841"
       inkscape:label="Inner Glow"
       inkscape:menu="Shadows and Glows"
       inkscape:menu-tooltip="Adds a colorizable glow inside"
       color-interpolation-filters="sRGB"><feGaussianBlur
         id="feGaussianBlur3843"
         stdDeviation="12"
         result="result8" /><feComposite
         id="feComposite3845"
         in2="result8"
         result="result6"
         in="SourceGraphic"
         operator="in" /><feComposite
         id="feComposite3847"
         in2="result6"
         operator="in"
         result="result11" /><feFlood
         id="feFlood3849"
         result="result10"
         in="result11"
         flood-opacity="1"
         flood-color="rgb(83,181,206)" /><feBlend
         id="feBlend3851"
         in2="result10"
         mode="normal"
         in="result11"
         result="result12" /><feComposite
         id="feComposite3853"
         in2="SourceGraphic"
         result="result2"
         operator="in"
         in="result12" /><feBlend
         blend="normal"
         id="feBlend3855"
         in2="result2" /></filter></defs><sodipodi:namedview
     pagecolor="#ffffff"
     bordercolor="#666666"
     borderopacity="1"
     objecttolerance="10"
     gridtolerance="10"
     guidetolerance="10"
     inkscape:pageopacity="0"
     inkscape:pageshadow="2"
     inkscape:window-width="1485"
     inkscape:window-height="745"
     id="namedview74"
     showgrid="false"
     inkscape:zoom="4.7479675"
     inkscape:cx="49.34842"
     inkscape:cy="28.800038"
     inkscape:window-x="75"
     inkscape:window-y="124"
     inkscape:window-maximized="0"
     inkscape:current-layer="Layer_1" /><linearGradient
     id="SVGID_1_"
     gradientUnits="userSpaceOnUse"
     x1="-342"
     y1="-996"
     x2="-342.0004"
     y2="-96.8916"
     gradientTransform="matrix(1 0 0 -1 702 -50)"><stop
       offset="0"
       style="stop-color:#041724"
       id="stop4" /><stop
       offset="1"
       style="stop-color:#000000"
       id="stop6" /></linearGradient><rect
     display="none"
     fill="url(#SVGID_1_)"
     width="720"
     height="1001"
     id="rect8" /><rect
     x="575"
     y="876.898"
     display="none"
     fill="#31ABFF"
     fill-opacity="0.29"
     stroke="#31ABFF"
     stroke-width="0.8902"
     stroke-miterlimit="10"
     stroke-opacity="0.64"
     width="122"
     height="86.563"
     id="rect10" /><rect
     x="575"
     y="876.898"
     display="none"
     fill="#31ABFF"
     fill-opacity="0.29"
     stroke="#31ABFF"
     stroke-width="0.8902"
     stroke-miterlimit="10"
     stroke-opacity="0.64"
     width="122"
     height="86.563"
     id="rect12" /><path
     display="none"
     fill="#31ABFF"
     d="M597.82,887.239h10.186v2.645h-6.965v4.871h6.493v2.646h-6.493v7.485h-3.221V887.239  L597.82,887.239z"
     id="path14" /><path
     display="none"
     fill="#31ABFF"
     d="M611.146,887.476c1.202-0.21,3.012-0.364,4.868-0.364c2.54,0,4.271,0.419,5.446,1.414  c0.969,0.812,1.521,2.043,1.521,3.532c0,2.278-1.548,3.823-3.194,4.428v0.078c1.257,0.472,2.016,1.699,2.461,3.401  c0.55,2.199,1.021,4.242,1.388,4.923h-3.323c-0.264-0.521-0.683-1.964-1.181-4.163c-0.497-2.305-1.335-3.037-3.168-3.09h-1.623  v7.253h-3.191v-17.412H611.146L611.146,887.476z M614.342,895.278h1.911c2.174,0,3.535-1.152,3.535-2.906  c0-1.938-1.361-2.828-3.456-2.828c-1.021,0-1.676,0.078-1.99,0.157V895.278z"
     id="path16" /><path
     display="none"
     fill="#31ABFF"
     d="M641.704,895.881c0,5.917-3.588,9.295-8.458,9.295c-4.975,0-8.117-3.797-8.117-8.979  c0-5.42,3.404-9.243,8.379-9.243C638.666,886.951,641.704,890.854,641.704,895.881z M628.533,896.143  c0,3.59,1.807,6.441,4.896,6.441c3.115,0,4.87-2.881,4.87-6.572c0-3.326-1.646-6.468-4.87-6.468  C630.235,889.544,628.533,892.503,628.533,896.143z"
     id="path18" /><path
     display="none"
     fill="#31ABFF"
     d="M644.48,904.888V887.24h3.662l4.56,7.564c1.178,1.967,2.199,4.006,3.011,5.918h0.053  c-0.21-2.354-0.288-4.635-0.288-7.332v-6.15h2.985v17.646h-3.326l-4.605-7.751c-1.126-1.938-2.307-4.107-3.168-6.101l-0.078,0.024  c0.131,2.277,0.154,4.607,0.154,7.517v6.311L644.48,904.888L644.48,904.888z"
     id="path20" /><path
     display="none"
     fill="#31ABFF"
     d="M665.559,889.938h-5.024v-2.695h13.327v2.695h-5.08v14.95h-3.223V889.938L665.559,889.938z"
     id="path22" /><path
     display="none"
     fill="#31ABFF"
     d="M657.373,950.479c-0.681,0-1.354-0.108-2.002-0.325c-12.401-4.181-26.008-4.18-38.407-0.001  c-0.646,0.218-1.322,0.327-2.004,0.327c-2.411,0-4.556-1.367-5.463-3.484l-9.131-22.044c-0.485-1.127-0.442-2.462,0.128-3.738  c0.857-1.924,2.822-3.56,5.249-4.375c9.819-3.308,20.056-4.982,30.423-4.982s20.604,1.678,30.424,4.983  c2.427,0.814,4.389,2.451,5.249,4.375c0.57,1.276,0.612,2.61,0.12,3.758l-9.115,22.006  C661.928,949.109,659.783,950.479,657.373,950.479z M636.166,943.77c6.896,0,13.703,1.116,20.234,3.317  c0.313,0.104,0.642,0.158,0.973,0.158c1.116,0,2.095-0.6,2.492-1.527l9.115-22.007c0.178-0.413,0.047-0.868-0.096-1.181  c-0.385-0.86-1.461-2.004-3.328-2.631c-9.486-3.196-19.378-4.817-29.394-4.817s-19.904,1.621-29.393,4.816  c-1.868,0.628-2.943,1.771-3.328,2.631c-0.143,0.312-0.271,0.768-0.104,1.162l9.131,22.045c0.393,0.906,1.368,1.509,2.483,1.509  c0.332,0,0.66-0.054,0.976-0.159C622.464,944.886,629.271,943.77,636.166,943.77z"
     id="path24" /><path
     display="none"
     fill="#31ABFF"
     d="M646.162,941.966c-0.538,0-1.034-0.288-1.302-0.755l-7.835-13.686l-7.836,13.686  c-0.27,0.467-0.766,0.755-1.304,0.755s-1.034-0.288-1.302-0.755l-7.858-13.726l-4.021,6.777c-0.271,0.455-0.761,0.734-1.29,0.734  H607c-0.828,0-1.5-0.672-1.5-1.5s0.672-1.5,1.5-1.5h5.563l4.832-8.148c0.02-0.032,0.035-0.066,0.058-0.104  c0.269-0.463,0.763-0.748,1.298-0.748c0.539,0,1.04,0.289,1.307,0.758c0.019,0.026,0.029,0.054,0.043,0.081l7.791,13.607  l7.771-13.572c0.02-0.043,0.042-0.085,0.063-0.126c0.271-0.463,0.766-0.748,1.301-0.748c0.532,0,1.03,0.285,1.301,0.748  c0.018,0.029,0.034,0.06,0.049,0.091l7.791,13.607l7.771-13.572c0.019-0.041,0.037-0.081,0.062-0.12  c0.268-0.466,0.764-0.754,1.302-0.754c0.535,0,1.033,0.285,1.303,0.748c0.016,0.022,0.027,0.051,0.043,0.077l4.789,8.175H665  c0.828,0,1.5,0.672,1.5,1.5s-0.672,1.5-1.5,1.5h-4.432c-0.532,0-1.025-0.282-1.294-0.741l-3.962-6.76l-7.852,13.712  C647.196,941.678,646.7,941.966,646.162,941.966z"
     id="path26" /><g
     display="none"
     id="g28"><rect
       x="0.5"
       y="0.5"
       display="inline"
       opacity="0.8"
       enable-background="new    "
       width="122"
       height="87"
       id="rect30" /><rect
       x="0.5"
       y="0.5"
       display="inline"
       fill="none"
       stroke="#FFFFFF"
       stroke-miterlimit="10"
       width="122"
       height="87"
       id="rect32" /></g><rect
     style="opacity:0.80000000000000004;stroke:#ffffff;stroke-opacity:1;filter:url(#filter3841);fill:#000000;fill-opacity:1"
     x="0.5"
     y="0.5"
     width="122"
     height="87"
     id="rect38" /><rect
     x="0.5"
     y="0.5"
     mask="url(#SVGID_2_)"
     width="122"
     height="87"
     id="rect50"
     style="opacity:0.6;fill:#53b5ce" /><path
     fill="#FFFFFF"
     d="M23.82,11.239h10.186v2.645h-6.965v4.871h6.493v2.646h-6.493v7.485H23.82V11.239L23.82,11.239z"
     id="path54" /><path
     fill="#FFFFFF"
     d="M37.146,11.476c1.202-0.21,3.012-0.364,4.868-0.364c2.54,0,4.271,0.419,5.446,1.414  c0.969,0.812,1.521,2.043,1.521,3.532c0,2.278-1.548,3.823-3.194,4.428v0.078c1.257,0.472,2.016,1.699,2.461,3.401  c0.55,2.199,1.021,4.242,1.388,4.923h-3.323c-0.264-0.521-0.683-1.964-1.181-4.163c-0.497-2.305-1.335-3.037-3.168-3.09h-1.623  v7.253H37.15V11.476H37.146L37.146,11.476z M40.342,19.278h1.911c2.174,0,3.535-1.152,3.535-2.906c0-1.938-1.361-2.828-3.456-2.828  c-1.021,0-1.676,0.078-1.99,0.157V19.278z"
     id="path56" /><path
     fill="#FFFFFF"
     d="M67.704,19.881c0,5.917-3.588,9.295-8.458,9.295c-4.975,0-8.117-3.797-8.117-8.979  c0-5.42,3.404-9.243,8.379-9.243C64.666,10.951,67.704,14.854,67.704,19.881z M54.533,20.143c0,3.59,1.807,6.441,4.896,6.441  c3.115,0,4.87-2.881,4.87-6.572c0-3.326-1.646-6.468-4.87-6.468C56.235,13.544,54.533,16.503,54.533,20.143z"
     id="path58" /><path
     fill="#FFFFFF"
     d="M70.48,28.888V11.24h3.662l4.56,7.564c1.178,1.967,2.199,4.006,3.011,5.918h0.053  c-0.21-2.354-0.288-4.635-0.288-7.332v-6.15h2.985v17.646h-3.326l-4.605-7.751c-1.126-1.938-2.307-4.107-3.168-6.101l-0.078,0.024  c0.131,2.277,0.154,4.607,0.154,7.517v6.311L70.48,28.888L70.48,28.888z"
     id="path60" /><path
     fill="#FFFFFF"
     d="M91.559,13.938h-5.024v-2.695h13.327v2.695h-5.08v14.95h-3.223V13.938L91.559,13.938z"
     id="path62" /><path
     fill="#FFFFFF"
     d="M83.373,74.479c-0.681,0-1.354-0.108-2.002-0.325c-12.401-4.181-26.008-4.18-38.407-0.001  c-0.646,0.218-1.322,0.327-2.004,0.327c-2.411,0-4.556-1.367-5.463-3.484l-9.131-22.044c-0.485-1.127-0.442-2.462,0.128-3.738  c0.857-1.924,2.822-3.56,5.249-4.375c9.819-3.308,20.056-4.982,30.423-4.982s20.604,1.678,30.424,4.983  c2.427,0.814,4.389,2.451,5.249,4.375c0.57,1.276,0.612,2.61,0.12,3.758l-9.115,22.006C87.928,73.109,85.783,74.479,83.373,74.479z   M62.166,67.77c6.896,0,13.703,1.116,20.234,3.317c0.313,0.104,0.642,0.158,0.973,0.158c1.116,0,2.095-0.6,2.492-1.527l9.115-22.007  c0.178-0.413,0.047-0.868-0.096-1.181c-0.385-0.86-1.461-2.004-3.328-2.631c-9.486-3.196-19.378-4.817-29.394-4.817  s-19.904,1.621-29.393,4.816c-1.868,0.628-2.943,1.771-3.328,2.631c-0.143,0.312-0.271,0.768-0.104,1.162l9.131,22.045  c0.393,0.906,1.368,1.509,2.483,1.509c0.332,0,0.66-0.054,0.976-0.159C48.464,68.886,55.271,67.77,62.166,67.77z"
     id="path64" /><path
     fill="#FFFFFF"
     d="M72.162,65.966c-0.538,0-1.034-0.288-1.302-0.755l-7.835-13.686l-7.836,13.686  c-0.27,0.467-0.766,0.755-1.304,0.755s-1.034-0.288-1.302-0.755l-7.858-13.726l-4.021,6.777c-0.271,0.455-0.761,0.734-1.29,0.734H33  c-0.828,0-1.5-0.672-1.5-1.5s0.672-1.5,1.5-1.5h5.563l4.832-8.148c0.02-0.032,0.035-0.066,0.058-0.104  c0.269-0.463,0.763-0.748,1.298-0.748c0.539,0,1.04,0.289,1.307,0.758c0.019,0.026,0.029,0.054,0.043,0.081l7.791,13.607  l7.771-13.572c0.02-0.043,0.042-0.085,0.063-0.126c0.271-0.463,0.766-0.748,1.301-0.748c0.532,0,1.03,0.285,1.301,0.748  c0.018,0.029,0.034,0.06,0.049,0.091l7.791,13.607l7.771-13.572c0.019-0.041,0.037-0.081,0.062-0.12  c0.268-0.466,0.764-0.754,1.302-0.754c0.535,0,1.033,0.285,1.303,0.748c0.016,0.022,0.027,0.051,0.043,0.077l4.789,8.175H91  c0.828,0,1.5,0.672,1.5,1.5s-0.672,1.5-1.5,1.5h-4.432c-0.532,0-1.025-0.282-1.294-0.741l-3.962-6.76l-7.852,13.712  C73.196,65.678,72.7,65.966,72.162,65.966z"
     id="path66" /><text
     transform="matrix(1 0 0 1 595.9609 904.8877)"
     display="none"
     fill="#31ABFF"
     enable-background="new    "
     font-family="'MyriadPro-Semibold'"
     font-size="26.1844"
     id="text68">FRONT</text>
<path
     display="none"
     fill="none"
     stroke="#31ABFF"
     stroke-width="3.2325"
     stroke-miterlimit="10"
     d="M661.351,946.355  c-0.881,2.053-3.306,2.983-5.466,2.263c-12.79-4.313-26.646-4.313-39.437,0c-2.16,0.724-4.586-0.21-5.466-2.263  c-3.042-7.345-6.082-14.687-9.123-22.025c-0.881-2.047,1.056-4.84,4.396-5.963c19.399-6.535,40.417-6.535,59.816,0  c3.342,1.123,5.276,3.916,4.396,5.963C667.432,931.672,664.392,939.014,661.351,946.355z"
     id="path70" /><polyline
     display="none"
     fill="none"
     stroke="#31ABFF"
     stroke-width="3"
     stroke-linecap="round"
     stroke-linejoin="round"
     stroke-miterlimit="10"
     points="  665,933.5 660.568,933.5 655.295,924.5 655.302,924.5 646.162,940.466 637.021,924.5 637.028,924.5 627.889,940.466 618.748,924.5   618.755,924.5 613.417,933.5 607,933.5 "
     id="polyline72" /><rect
     style="opacity:0.8;fill:none;stroke:#ffffff;stroke-opacity:1"
     x="0.62671262"
     y="0.49143794"
     width="122"
     height="87"
     id="rect38-5" /></svg>