<?xml version="1.0" encoding="UTF-8" standalone="no"?>
<!-- Generator: Adobe Illustrator 16.0.0, SVG Export Plug-In . SVG Version: 6.00 Build 0)  -->

<svg
   xmlns:dc="http://purl.org/dc/elements/1.1/"
   xmlns:cc="http://creativecommons.org/ns#"
   xmlns:rdf="http://www.w3.org/1999/02/22-rdf-syntax-ns#"
   xmlns:svg="http://www.w3.org/2000/svg"
   xmlns="http://www.w3.org/2000/svg"
   xmlns:xlink="http://www.w3.org/1999/xlink"
   xmlns:sodipodi="http://sodipodi.sourceforge.net/DTD/sodipodi-0.dtd"
   xmlns:inkscape="http://www.inkscape.org/namespaces/inkscape"
   version="1.1"
   id="Layer_1"
   x="0px"
   y="0px"
   width="123px"
   height="88px"
   viewBox="0 0 123 88"
   enable-background="new 0 0 123 88"
   xml:space="preserve"
   inkscape:version="0.48.4 r9939"
   sodipodi:docname="defrost_rear_on.svg"><metadata
     id="metadata84"><rdf:RDF><cc:Work
         rdf:about=""><dc:format>image/svg+xml</dc:format><dc:type
           rdf:resource="http://purl.org/dc/dcmitype/StillImage" /></cc:Work></rdf:RDF></metadata><defs
     id="defs82"><defs
       id="defs38"><filter
         height="88"
         width="123"
         y="0"
         x="0"
         filterUnits="userSpaceOnUse"
         id="Adobe_OpacityMaskFilter"><feColorMatrix
           id="feColorMatrix41"
           result="source"
           color-interpolation-filters="sRGB"
           values="-1 0 0 0 1  0 -1 0 0 1  0 0 -1 0 1  0 0 0 1 0"
           type="matrix" /></filter></defs><filter
       id="filter3843"
       inkscape:label="Inner Glow"
       inkscape:menu="Shadows and Glows"
       inkscape:menu-tooltip="Adds a colorizable glow inside"
       color-interpolation-filters="sRGB"><feGaussianBlur
         id="feGaussianBlur3845"
         stdDeviation="12"
         result="result8" /><feComposite
         id="feComposite3847"
         in2="result8"
         result="result6"
         in="SourceGraphic"
         operator="in" /><feComposite
         id="feComposite3849"
         in2="result6"
         operator="in"
         result="result11" /><feFlood
         id="feFlood3851"
         result="result10"
         in="result11"
         flood-opacity="1"
         flood-color="rgb(83,181,206)" /><feBlend
         id="feBlend3853"
         in2="result10"
         mode="normal"
         in="result11"
         result="result12" /><feComposite
         id="feComposite3855"
         in2="SourceGraphic"
         result="result2"
         operator="in"
         in="result12" /></filter></defs><sodipodi:namedview
     pagecolor="#ffffff"
     bordercolor="#666666"
     borderopacity="1"
     objecttolerance="10"
     gridtolerance="10"
     guidetolerance="10"
     inkscape:pageopacity="0"
     inkscape:pageshadow="2"
     inkscape:window-width="1523"
     inkscape:window-height="877"
     id="namedview80"
     showgrid="false"
     inkscape:zoom="2.3739837"
     inkscape:cx="-2.9486301"
     inkscape:cy="44"
     inkscape:window-x="65"
     inkscape:window-y="24"
     inkscape:window-maximized="0"
     inkscape:current-layer="Layer_1" /><linearGradient
     id="SVGID_1_"
     gradientUnits="userSpaceOnUse"
     x1="-107.9995"
     y1="1649"
     x2="-107.9997"
     y2="749.8912"
     gradientTransform="matrix(1 0 0 1 468 -703)"><stop
       offset="0"
       style="stop-color:#041724"
       id="stop4" /><stop
       offset="1"
       style="stop-color:#000000"
       id="stop6" /></linearGradient><rect
     display="none"
     fill="url(#SVGID_1_)"
     width="720"
     height="1001"
     id="rect8" /><rect
     x="575"
     y="763.898"
     display="none"
     fill="#31ABFF"
     fill-opacity="0.29"
     stroke="#31ABFF"
     stroke-width="0.8902"
     stroke-miterlimit="10"
     stroke-opacity="0.64"
     width="122"
     height="86.563"
     id="rect10" /><rect
     x="575"
     y="763.898"
     display="none"
     fill="#31ABFF"
     fill-opacity="0.29"
     stroke="#31ABFF"
     stroke-width="0.8902"
     stroke-miterlimit="10"
     stroke-opacity="0.64"
     width="122"
     height="86.563"
     id="rect12" /><path
     display="none"
     fill="#31ABFF"
     d="M607.486,775.877c1.204-0.21,3.011-0.367,4.87-0.367c2.54,0,4.268,0.419,5.444,1.414  c0.971,0.813,1.521,2.043,1.521,3.535c0,2.278-1.545,3.823-3.194,4.425v0.079c1.257,0.471,2.016,1.701,2.461,3.403  c0.55,2.198,1.021,4.242,1.389,4.923h-3.324c-0.264-0.523-0.683-1.964-1.18-4.163c-0.498-2.305-1.336-3.037-3.169-3.09h-1.623v7.253  h-3.192L607.486,775.877L607.486,775.877z M610.681,783.68h1.911c2.174,0,3.535-1.15,3.535-2.904c0-1.938-1.361-2.828-3.456-2.828  c-1.021,0-1.676,0.078-1.99,0.155V783.68z"
     id="path14" /><path
     display="none"
     fill="#31ABFF"
     d="M632.256,785.46h-6.65v5.185h7.438v2.646h-10.656v-17.648h10.266v2.646h-7.044v4.557h6.649  L632.256,785.46L632.256,785.46z"
     id="path16" /><path
     display="none"
     fill="#31ABFF"
     d="M639.404,788.288l-1.521,5.001h-3.325l5.656-17.648h4.11l5.732,17.648h-3.456l-1.598-5.001  H639.404z M644.458,785.854l-1.388-4.348c-0.34-1.073-0.628-2.275-0.893-3.299h-0.052c-0.262,1.021-0.523,2.252-0.838,3.299  l-1.361,4.348H644.458z"
     id="path18" /><path
     display="none"
     fill="#31ABFF"
     d="M652.521,775.877c1.203-0.21,3.012-0.367,4.869-0.367c2.54,0,4.27,0.419,5.446,1.414  c0.969,0.813,1.521,2.043,1.521,3.535c0,2.278-1.547,3.823-3.194,4.425v0.079c1.257,0.471,2.016,1.701,2.461,3.403  c0.55,2.198,1.021,4.242,1.388,4.923h-3.324c-0.263-0.523-0.682-1.964-1.18-4.163c-0.497-2.305-1.335-3.037-3.168-3.09h-1.623v7.253  h-3.192v-17.412H652.521L652.521,775.877z M655.717,783.68h1.911c2.174,0,3.535-1.15,3.535-2.904c0-1.938-1.361-2.828-3.456-2.828  c-1.021,0-1.676,0.078-1.99,0.155V783.68z"
     id="path20" /><path
     display="none"
     fill="#31ABFF"
     d="M654.34,832h-35.68c-3.121,0-5.66-2.539-5.66-5.66v-19.68c0-3.121,2.539-5.66,5.66-5.66  h35.68c3.121,0,5.66,2.539,5.66,5.66v19.68C660,829.461,657.461,832,654.34,832z M618.66,804c-1.467,0-2.66,1.193-2.66,2.66v19.68  c0,1.467,1.193,2.66,2.66,2.66h35.68c1.467,0,2.66-1.193,2.66-2.66v-19.68c0-1.467-1.193-2.66-2.66-2.66H618.66z"
     id="path22" /><path
     display="none"
     fill="#31ABFF"
     d="M626.822,814.006l3.49,0.505l-2.15-6.703l-7.024,5.388l3.361,0.482  c-7.017,9.952,8.393,19.228,0.442,30.322c0.664,0,1.504,0,2.561,0C635.366,833.696,620.365,823.848,626.822,814.006z"
     id="path24" /><path
     display="none"
     fill="#31ABFF"
     d="M636.807,814.006l3.49,0.505l-2.147-6.703l-7.024,5.388l3.361,0.482  c-7.019,9.952,8.394,19.228,0.44,30.322c0.665,0,1.505,0,2.563,0C645.351,833.696,630.352,823.848,636.807,814.006z"
     id="path26" /><path
     display="none"
     fill="#31ABFF"
     d="M646.793,814.006l3.49,0.505l-2.15-6.703l-7.022,5.388l3.359,0.482  c-7.017,9.952,8.396,19.228,0.442,30.322c0.665,0,1.505,0,2.562,0C655.337,833.696,640.337,823.848,646.793,814.006z"
     id="path28" /><rect
     x="0.5"
     y="0.5"
     width="122"
     height="87"
     id="rect34"
     style="opacity:0.80000000000000004;stroke:#ffffff;stroke-opacity:1;fill:#000000;fill-opacity:1;filter:url(#filter3843)" /><rect
     x="0.5"
     y="0.5"
     stroke-miterlimit="10"
     width="122"
     height="87"
     id="rect36"
     style="opacity:0.80000000000000004;fill:none;stroke:#ffffff;stroke-miterlimit:10;stroke-opacity:1" /><g
     style="opacity:0.6"
     id="g48"
     mask="url(#SVGID_2_)"><rect
       style="opacity:0.8;fill:#53b5ce"
       id="rect50"
       height="87"
       width="122"
       y="0.5"
       x="0.5" /><rect
       style="fill:none;stroke:#53b5ce;stroke-miterlimit:10"
       id="rect52"
       height="87"
       width="122"
       stroke-miterlimit="10"
       y="0.5"
       x="0.5" /></g><path
     fill="#FFFFFF"
     d="M33.486,12.877c1.204-0.21,3.011-0.367,4.87-0.367c2.54,0,4.268,0.419,5.444,1.414  c0.971,0.813,1.521,2.043,1.521,3.535c0,2.278-1.545,3.823-3.194,4.425v0.079c1.257,0.471,2.016,1.701,2.461,3.403  c0.55,2.198,1.021,4.242,1.389,4.923h-3.324c-0.264-0.523-0.683-1.964-1.18-4.163c-0.498-2.305-1.336-3.037-3.169-3.09h-1.623v7.253  h-3.192L33.486,12.877L33.486,12.877z M36.681,20.68h1.911c2.174,0,3.535-1.15,3.535-2.904c0-1.938-1.361-2.828-3.456-2.828  c-1.021,0-1.676,0.078-1.99,0.155V20.68z"
     id="path54" /><path
     fill="#FFFFFF"
     d="M58.256,22.46h-6.65v5.185h7.438v2.646H48.387V12.643h10.266v2.646h-7.044v4.557h6.649L58.256,22.46  L58.256,22.46z"
     id="path56" /><path
     fill="#FFFFFF"
     d="M65.404,25.288l-1.521,5.001h-3.325l5.656-17.648h4.11l5.732,17.648h-3.456l-1.598-5.001H65.404z   M70.458,22.854l-1.388-4.348c-0.34-1.073-0.628-2.275-0.893-3.299h-0.052c-0.262,1.021-0.523,2.252-0.838,3.299l-1.361,4.348  H70.458z"
     id="path58" /><path
     fill="#FFFFFF"
     d="M78.521,12.877c1.203-0.21,3.012-0.367,4.869-0.367c2.54,0,4.27,0.419,5.446,1.414  c0.969,0.813,1.521,2.043,1.521,3.535c0,2.278-1.547,3.823-3.194,4.425v0.079c1.257,0.471,2.016,1.701,2.461,3.403  c0.55,2.198,1.021,4.242,1.388,4.923h-3.324c-0.263-0.523-0.682-1.964-1.18-4.163c-0.497-2.305-1.335-3.037-3.168-3.09h-1.623v7.253  h-3.192V12.877H78.521L78.521,12.877z M81.717,20.68h1.911c2.174,0,3.535-1.15,3.535-2.904c0-1.938-1.361-2.828-3.456-2.828  c-1.021,0-1.676,0.078-1.99,0.155V20.68z"
     id="path60" /><path
     fill="#FFFFFF"
     d="M80.34,69H44.66C41.539,69,39,66.461,39,63.34V43.66c0-3.121,2.539-5.66,5.66-5.66h35.68  c3.121,0,5.66,2.539,5.66,5.66v19.68C86,66.461,83.461,69,80.34,69z M44.66,41C43.193,41,42,42.193,42,43.66v19.68  c0,1.467,1.193,2.66,2.66,2.66h35.68c1.467,0,2.66-1.193,2.66-2.66V43.66c0-1.467-1.193-2.66-2.66-2.66H44.66z"
     id="path62" /><path
     fill="#FFFFFF"
     d="M52.822,51.006l3.49,0.505l-2.15-6.703l-7.024,5.388l3.361,0.482C43.482,60.63,58.892,69.905,50.941,81  c0.664,0,1.504,0,2.561,0C61.366,70.696,46.365,60.848,52.822,51.006z"
     id="path64" /><path
     fill="#FFFFFF"
     d="M62.807,51.006l3.49,0.505l-2.147-6.703l-7.024,5.388l3.361,0.482C53.468,60.63,68.88,69.905,60.927,81  c0.665,0,1.505,0,2.563,0C71.351,70.696,56.352,60.848,62.807,51.006z"
     id="path66" /><path
     fill="#FFFFFF"
     d="M72.793,51.006l3.49,0.505l-2.15-6.703l-7.022,5.388l3.359,0.482C63.453,60.63,78.865,69.905,70.912,81  c0.665,0,1.505,0,2.562,0C81.337,70.696,66.337,60.848,72.793,51.006z"
     id="path68" /><text
     transform="matrix(1 0 0 1 605.627 793.2891)"
     display="none"
     fill="#31ABFF"
     enable-background="new    "
     font-family="'MyriadPro-Semibold'"
     font-size="26.1844"
     id="text70">REAR</text>
<path
     display="none"
     fill="none"
     stroke="#31ABFF"
     stroke-width="3"
     stroke-miterlimit="10"
     d="M658.5,826.34  c0,2.298-1.862,4.16-4.16,4.16h-35.68c-2.298,0-4.16-1.862-4.16-4.16v-19.68c0-2.298,1.862-4.16,4.16-4.16h35.68  c2.298,0,4.16,1.862,4.16,4.16V826.34z"
     id="path72" /><path
     display="none"
     fill="#31ABFF"
     d="M626.822,814.006l3.49,0.505l-2.15-6.703l-7.024,5.388l3.361,0.482  c-7.017,9.952,8.393,19.228,0.442,30.322c0.664,0,1.504,0,2.561,0C635.366,833.696,620.365,823.848,626.822,814.006z"
     id="path74" /><path
     display="none"
     fill="#31ABFF"
     d="M636.807,814.006l3.49,0.505l-2.147-6.703l-7.024,5.388l3.361,0.482  c-7.019,9.952,8.394,19.228,0.44,30.322c0.665,0,1.505,0,2.563,0C645.351,833.696,630.352,823.848,636.807,814.006z"
     id="path76" /><path
     display="none"
     fill="#31ABFF"
     d="M646.793,814.006l3.49,0.505l-2.15-6.703l-7.022,5.388l3.359,0.482  c-7.017,9.952,8.396,19.228,0.442,30.322c0.665,0,1.505,0,2.562,0C655.337,833.696,640.337,823.848,646.793,814.006z"
     id="path78" /></svg>