<?xml version="1.0" encoding="utf-8"?>
<!-- Generator: Adobe Illustrator 16.0.0, SVG Export Plug-In . SVG Version: 6.00 Build 0)  -->
<!DOCTYPE svg PUBLIC "-//W3C//DTD SVG 1.1//EN" "http://www.w3.org/Graphics/SVG/1.1/DTD/svg11.dtd">
<svg version="1.1" id="Layer_1" xmlns="http://www.w3.org/2000/svg" xmlns:xlink="http://www.w3.org/1999/xlink" x="0px" y="0px"
	 width="123px" height="88px" viewBox="0 0 123 88" enable-background="new 0 0 123 88" xml:space="preserve">
<linearGradient id="SVGID_1_" gradientUnits="userSpaceOnUse" x1="-107.9995" y1="1649" x2="-107.9997" y2="749.8912" gradientTransform="matrix(1 0 0 1 468 -703)">
	<stop  offset="0" style="stop-color:#041724"/>
	<stop  offset="1" style="stop-color:#000000"/>
</linearGradient>
<rect display="none" fill="url(#SVGID_1_)" width="720" height="1001"/>
<rect x="575" y="876.898" display="none" fill="#31ABFF" fill-opacity="0.29" stroke="#31ABFF" stroke-width="0.8902" stroke-miterlimit="10" stroke-opacity="0.64" width="122" height="86.563"/>
<g>
	
		<rect x="0.5" y="0.719" fill-opacity="0.29" stroke="#FFFFFF" stroke-width="0.8902" stroke-miterlimit="10" stroke-opacity="0.64" width="122" height="86.563"/>
	<path fill="#B2F0FF" d="M23.32,11.06h10.186v2.645h-6.965v4.871h6.493v2.646h-6.493v7.486H23.32V11.06L23.32,11.06z"/>
	<path fill="#B2F0FF" d="M36.646,11.296c1.203-0.21,3.012-0.365,4.869-0.365c2.54,0,4.27,0.419,5.446,1.414
		c0.969,0.812,1.521,2.043,1.521,3.533c0,2.278-1.547,3.823-3.194,4.427v0.078c1.257,0.472,2.016,1.7,2.461,3.402
		c0.55,2.199,1.021,4.242,1.388,4.923h-3.324c-0.263-0.521-0.682-1.964-1.18-4.163c-0.497-2.305-1.335-3.037-3.168-3.09h-1.623
		v7.253h-3.192V11.296H36.646L36.646,11.296z M39.842,19.099h1.911c2.174,0,3.535-1.152,3.535-2.906
		c0-1.938-1.361-2.828-3.456-2.828c-1.021,0-1.676,0.078-1.99,0.157V19.099z"/>
	<path fill="#B2F0FF" d="M67.204,19.701c0,5.917-3.588,9.295-8.458,9.295c-4.975,0-8.117-3.797-8.117-8.979
		c0-5.42,3.404-9.243,8.379-9.243C64.166,10.771,67.204,14.674,67.204,19.701z M54.033,19.963c0,3.589,1.807,6.441,4.896,6.441
		c3.115,0,4.87-2.881,4.87-6.572c0-3.326-1.647-6.468-4.87-6.468C55.735,13.364,54.033,16.323,54.033,19.963z"/>
	<path fill="#B2F0FF" d="M69.98,28.708V11.061h3.663l4.559,7.565c1.178,1.966,2.199,4.006,3.011,5.918h0.053
		c-0.21-2.354-0.288-4.635-0.288-7.332v-6.151h2.985v17.646h-3.326l-4.606-7.751c-1.126-1.938-2.306-4.108-3.168-6.101l-0.078,0.025
		c0.131,2.277,0.155,4.607,0.155,7.516v6.311L69.98,28.708L69.98,28.708z"/>
	<path fill="#B2F0FF" d="M91.059,13.758h-5.025v-2.696H99.36v2.696h-5.08v14.95h-3.222V13.758L91.059,13.758z"/>
	<path fill="#B2F0FF" d="M82.873,74.299c-0.681,0-1.354-0.109-2.002-0.326c-12.401-4.18-26.008-4.179-38.407-0.001
		c-0.647,0.218-1.322,0.327-2.004,0.327c-2.411,0-4.556-1.367-5.463-3.484l-9.131-22.044c-0.485-1.127-0.442-2.462,0.128-3.738
		c0.858-1.924,2.822-3.56,5.249-4.375c9.819-3.308,20.056-4.983,30.423-4.983s20.604,1.678,30.424,4.984
		c2.427,0.814,4.389,2.451,5.249,4.375c0.57,1.276,0.612,2.61,0.12,3.758l-9.115,22.005C87.428,72.93,85.283,74.299,82.873,74.299z
		 M61.666,67.59c6.896,0,13.703,1.116,20.234,3.317c0.313,0.104,0.642,0.158,0.973,0.158c1.116,0,2.095-0.6,2.492-1.527
		l9.115-22.007c0.178-0.413,0.047-0.868-0.095-1.181c-0.385-0.86-1.461-2.004-3.328-2.631c-9.487-3.196-19.378-4.817-29.394-4.817
		s-19.904,1.621-29.393,4.816c-1.868,0.628-2.943,1.771-3.328,2.631c-0.142,0.312-0.271,0.768-0.103,1.162l9.131,22.045
		c0.392,0.907,1.368,1.509,2.483,1.509c0.332,0,0.66-0.054,0.976-0.159C47.964,68.706,54.771,67.59,61.666,67.59z"/>
	<path fill="#B2F0FF" d="M71.662,65.786c-0.538,0-1.034-0.288-1.302-0.755l-7.835-13.686l-7.836,13.686
		c-0.269,0.467-0.765,0.755-1.303,0.755s-1.034-0.288-1.302-0.755l-7.858-13.726l-4.021,6.778c-0.271,0.455-0.761,0.734-1.29,0.734
		H32.5c-0.828,0-1.5-0.672-1.5-1.5s0.672-1.5,1.5-1.5h5.563l4.832-8.148c0.019-0.033,0.035-0.067,0.057-0.104
		c0.269-0.463,0.763-0.748,1.298-0.748c0.539,0,1.04,0.289,1.307,0.758c0.018,0.026,0.029,0.054,0.043,0.081l7.791,13.607
		l7.771-13.572c0.02-0.043,0.042-0.085,0.063-0.126c0.271-0.463,0.765-0.748,1.3-0.748c0.533,0,1.031,0.285,1.301,0.748
		c0.018,0.029,0.034,0.06,0.049,0.091l7.791,13.607l7.771-13.572c0.019-0.041,0.038-0.081,0.062-0.12
		c0.268-0.466,0.764-0.754,1.302-0.754c0.535,0,1.033,0.285,1.302,0.748c0.016,0.023,0.028,0.051,0.043,0.077l4.789,8.175H90.5
		c0.828,0,1.5,0.672,1.5,1.5s-0.672,1.5-1.5,1.5h-4.432c-0.532,0-1.025-0.282-1.294-0.741l-3.962-6.76l-7.851,13.712
		C72.696,65.498,72.2,65.786,71.662,65.786z"/>
</g>
<linearGradient id="SVGID_2_" gradientUnits="userSpaceOnUse" x1="167.5" y1="1580.6396" x2="167.5" y2="1665.9438" gradientTransform="matrix(1 0 0 1 468 -703)">
	<stop  offset="0.5092" style="stop-color:#31ABFF;stop-opacity:0"/>
	<stop  offset="0.9018" style="stop-color:#31ABFF"/>
	<stop  offset="1" style="stop-color:#63E6FF"/>
</linearGradient>
<rect x="574.5" y="876.5" display="none" fill="url(#SVGID_2_)" stroke="#31ABFF" stroke-miterlimit="10" width="122" height="87"/>
<path display="none" fill="#FFFFFF" d="M597.82,887.239h10.186v2.645h-6.965v4.871h6.493v2.646h-6.493v7.486h-3.221V887.239
	L597.82,887.239z"/>
<path display="none" fill="#FFFFFF" d="M611.146,887.476c1.203-0.21,3.012-0.365,4.869-0.365c2.54,0,4.27,0.419,5.446,1.414
	c0.969,0.812,1.521,2.043,1.521,3.533c0,2.278-1.547,3.823-3.194,4.427v0.078c1.257,0.472,2.016,1.7,2.461,3.402
	c0.55,2.199,1.021,4.242,1.388,4.923h-3.324c-0.263-0.521-0.682-1.964-1.18-4.163c-0.497-2.305-1.335-3.037-3.168-3.09h-1.623v7.253
	h-3.192v-17.412H611.146L611.146,887.476z M614.342,895.278h1.911c2.174,0,3.535-1.152,3.535-2.906c0-1.938-1.361-2.828-3.456-2.828
	c-1.021,0-1.676,0.078-1.99,0.157V895.278z"/>
<path display="none" fill="#FFFFFF" d="M641.704,895.881c0,5.917-3.588,9.295-8.458,9.295c-4.975,0-8.117-3.797-8.117-8.979
	c0-5.42,3.404-9.243,8.379-9.243C638.666,886.951,641.704,890.854,641.704,895.881z M628.533,896.143
	c0,3.589,1.807,6.441,4.896,6.441c3.115,0,4.87-2.881,4.87-6.572c0-3.326-1.647-6.468-4.87-6.468
	C630.235,889.544,628.533,892.503,628.533,896.143z"/>
<path display="none" fill="#FFFFFF" d="M644.48,904.888V887.24h3.663l4.559,7.565c1.178,1.966,2.199,4.006,3.011,5.918h0.053
	c-0.21-2.354-0.288-4.635-0.288-7.332v-6.151h2.985v17.646h-3.326l-4.606-7.751c-1.126-1.938-2.306-4.108-3.168-6.101l-0.078,0.025
	c0.131,2.277,0.155,4.607,0.155,7.516v6.311L644.48,904.888L644.48,904.888z"/>
<path display="none" fill="#FFFFFF" d="M665.559,889.938h-5.025v-2.696h13.327v2.696h-5.08v14.95h-3.222V889.938L665.559,889.938z"
	/>
<path display="none" fill="#FFFFFF" d="M657.373,950.479c-0.681,0-1.354-0.109-2.002-0.326c-12.401-4.18-26.008-4.179-38.407-0.001
	c-0.647,0.218-1.322,0.327-2.004,0.327c-2.411,0-4.556-1.367-5.463-3.484l-9.131-22.044c-0.485-1.127-0.442-2.462,0.128-3.738
	c0.858-1.924,2.822-3.56,5.249-4.375c9.819-3.308,20.056-4.983,30.423-4.983s20.604,1.678,30.424,4.984
	c2.427,0.814,4.389,2.451,5.249,4.375c0.57,1.276,0.612,2.61,0.12,3.758l-9.115,22.005
	C661.928,949.109,659.783,950.479,657.373,950.479z M636.166,943.77c6.896,0,13.703,1.116,20.234,3.317
	c0.313,0.104,0.642,0.158,0.973,0.158c1.116,0,2.095-0.6,2.492-1.527l9.115-22.007c0.178-0.413,0.047-0.868-0.095-1.181
	c-0.385-0.86-1.461-2.004-3.328-2.631c-9.487-3.196-19.378-4.817-29.394-4.817s-19.904,1.621-29.393,4.816
	c-1.868,0.628-2.943,1.771-3.328,2.631c-0.142,0.312-0.271,0.768-0.103,1.162l9.131,22.045c0.392,0.907,1.368,1.509,2.483,1.509
	c0.332,0,0.66-0.054,0.976-0.159C622.464,944.886,629.271,943.77,636.166,943.77z"/>
<path display="none" fill="#FFFFFF" d="M646.162,941.966c-0.538,0-1.034-0.288-1.302-0.755l-7.835-13.686l-7.836,13.686
	c-0.269,0.467-0.765,0.755-1.303,0.755s-1.034-0.288-1.302-0.755l-7.858-13.726l-4.021,6.778c-0.271,0.455-0.761,0.734-1.29,0.734
	H607c-0.828,0-1.5-0.672-1.5-1.5s0.672-1.5,1.5-1.5h5.563l4.832-8.148c0.019-0.033,0.035-0.067,0.057-0.104
	c0.269-0.463,0.763-0.748,1.298-0.748c0.539,0,1.04,0.289,1.307,0.758c0.018,0.026,0.029,0.054,0.043,0.081l7.791,13.607
	l7.771-13.572c0.02-0.043,0.042-0.085,0.063-0.126c0.271-0.463,0.765-0.748,1.3-0.748c0.533,0,1.031,0.285,1.301,0.748
	c0.018,0.029,0.034,0.06,0.049,0.091l7.791,13.607l7.771-13.572c0.019-0.041,0.038-0.081,0.062-0.12
	c0.268-0.466,0.764-0.754,1.302-0.754c0.535,0,1.033,0.285,1.302,0.748c0.016,0.023,0.028,0.051,0.043,0.077l4.789,8.175H665
	c0.828,0,1.5,0.672,1.5,1.5s-0.672,1.5-1.5,1.5h-4.432c-0.532,0-1.025-0.282-1.294-0.741l-3.962-6.76l-7.851,13.712
	C647.196,941.678,646.7,941.966,646.162,941.966z"/>
<text transform="matrix(1 0 0 1 595.9609 904.8877)" display="none" fill="#31ABFF" enable-background="new    " font-family="'MyriadPro-Semibold'" font-size="26.1844">FRONT</text>
<path display="none" fill="none" stroke="#31ABFF" stroke-width="3.2325" stroke-miterlimit="10" d="M661.351,946.355
	c-0.881,2.053-3.306,2.984-5.466,2.263c-12.79-4.312-26.646-4.312-39.437,0c-2.16,0.724-4.586-0.21-5.466-2.263
	c-3.042-7.344-6.082-14.686-9.123-22.025c-0.881-2.047,1.056-4.84,4.396-5.963c19.399-6.535,40.417-6.535,59.816,0
	c3.342,1.123,5.277,3.916,4.397,5.963C667.432,931.672,664.392,939.014,661.351,946.355z"/>
<polyline display="none" fill="none" stroke="#31ABFF" stroke-width="3" stroke-linecap="round" stroke-linejoin="round" stroke-miterlimit="10" points="
	665,933.5 660.568,933.5 655.295,924.5 655.302,924.5 646.162,940.466 637.021,924.5 637.028,924.5 627.889,940.466 618.748,924.5 
	618.755,924.5 613.417,933.5 607,933.5 "/>
</svg>
