<?xml version="1.0" encoding="utf-8"?>
<!-- Generator: Adobe Illustrator 16.0.0, SVG Export Plug-In . SVG Version: 6.00 Build 0)  -->
<!DOCTYPE svg PUBLIC "-//W3C//DTD SVG 1.1//EN" "http://www.w3.org/Graphics/SVG/1.1/DTD/svg11.dtd">
<svg version="1.1" id="Layer_1" xmlns="http://www.w3.org/2000/svg" xmlns:xlink="http://www.w3.org/1999/xlink" x="0px" y="0px"
	 width="123px" height="88px" viewBox="0 0 123 88" enable-background="new 0 0 123 88" xml:space="preserve">
<linearGradient id="SVGID_1_" gradientUnits="userSpaceOnUse" x1="-107.9995" y1="1649" x2="-107.9997" y2="749.8912" gradientTransform="matrix(1 0 0 1 468 -703)">
	<stop  offset="0" style="stop-color:#041724"/>
	<stop  offset="1" style="stop-color:#000000"/>
</linearGradient>
<rect display="none" fill="url(#SVGID_1_)" width="720" height="1001"/>
<rect x="575" y="763.898" display="none" fill="#31ABFF" fill-opacity="0.29" stroke="#31ABFF" stroke-width="0.8902" stroke-miterlimit="10" stroke-opacity="0.64" width="122" height="86.563"/>
<g>
	
		<rect x="0.5" y="0.719" fill-opacity="0.29" stroke="#B2F0FF" stroke-width="0.8902" stroke-miterlimit="10" stroke-opacity="0.64" width="122" height="86.563"/>
	<path fill="#B2F0FF" d="M32.986,12.697c1.204-0.21,3.011-0.367,4.87-0.367c2.54,0,4.268,0.419,5.444,1.414
		c0.971,0.813,1.521,2.043,1.521,3.535c0,2.278-1.545,3.823-3.194,4.425v0.079c1.257,0.471,2.016,1.701,2.461,3.403
		c0.55,2.198,1.021,4.242,1.389,4.923h-3.324c-0.264-0.523-0.683-1.964-1.18-4.163c-0.498-2.305-1.336-3.037-3.169-3.09h-1.623
		v7.253h-3.192L32.986,12.697L32.986,12.697z M36.181,20.5h1.911c2.174,0,3.535-1.15,3.535-2.904c0-1.938-1.361-2.828-3.456-2.828
		c-1.021,0-1.676,0.078-1.99,0.155V20.5z"/>
	<path fill="#B2F0FF" d="M57.756,22.28h-6.65v5.185h7.438v2.646H47.887V12.463h10.266v2.646h-7.044v4.557h6.649L57.756,22.28
		L57.756,22.28z"/>
	<path fill="#B2F0FF" d="M64.904,25.108l-1.521,5.001h-3.325l5.656-17.648h4.11l5.732,17.648h-3.456l-1.598-5.001H64.904z
		 M69.958,22.674l-1.388-4.348c-0.34-1.073-0.628-2.275-0.893-3.299h-0.052c-0.262,1.021-0.523,2.252-0.838,3.299l-1.361,4.348
		H69.958z"/>
	<path fill="#B2F0FF" d="M78.021,12.697c1.203-0.21,3.012-0.367,4.869-0.367c2.54,0,4.27,0.419,5.446,1.414
		c0.969,0.813,1.521,2.043,1.521,3.535c0,2.278-1.547,3.823-3.194,4.425v0.079c1.257,0.471,2.016,1.701,2.461,3.403
		c0.55,2.198,1.021,4.242,1.388,4.923h-3.324c-0.263-0.523-0.682-1.964-1.18-4.163c-0.497-2.305-1.335-3.037-3.168-3.09h-1.623
		v7.253h-3.192V12.697H78.021L78.021,12.697z M81.217,20.5h1.911c2.174,0,3.535-1.15,3.535-2.904c0-1.938-1.361-2.828-3.456-2.828
		c-1.021,0-1.676,0.078-1.99,0.155V20.5z"/>
	<path fill="#B2F0FF" d="M79.84,68.82H44.16c-3.121,0-5.66-2.539-5.66-5.66V43.48c0-3.121,2.539-5.66,5.66-5.66h35.68
		c3.121,0,5.66,2.539,5.66,5.66v19.68C85.5,66.281,82.961,68.82,79.84,68.82z M44.16,40.82c-1.467,0-2.66,1.193-2.66,2.66v19.68
		c0,1.467,1.193,2.66,2.66,2.66h35.68c1.467,0,2.66-1.193,2.66-2.66V43.48c0-1.467-1.193-2.66-2.66-2.66H44.16z"/>
	<path fill="#B2F0FF" d="M52.322,50.826l3.49,0.505l-2.15-6.703l-7.024,5.388l3.361,0.482c-7.017,9.952,8.393,19.228,0.442,30.322
		c0.664,0,1.504,0,2.561,0C60.866,70.517,45.865,60.668,52.322,50.826z"/>
	<path fill="#B2F0FF" d="M62.307,50.826l3.49,0.505l-2.147-6.703l-7.024,5.388l3.361,0.482c-7.019,9.952,8.394,19.228,0.44,30.322
		c0.665,0,1.505,0,2.563,0C70.851,70.517,55.852,60.668,62.307,50.826z"/>
	<path fill="#B2F0FF" d="M72.293,50.826l3.49,0.505l-2.15-6.703l-7.022,5.388l3.359,0.482c-7.017,9.952,8.396,19.228,0.442,30.322
		c0.665,0,1.505,0,2.562,0C80.837,70.517,65.837,60.668,72.293,50.826z"/>
</g>
<linearGradient id="SVGID_2_" gradientUnits="userSpaceOnUse" x1="167.5" y1="1468.6846" x2="167.5" y2="1552.0071" gradientTransform="matrix(1 0 0 1 468 -703)">
	<stop  offset="0.5092" style="stop-color:#31ABFF;stop-opacity:0"/>
	<stop  offset="0.9018" style="stop-color:#31ABFF"/>
	<stop  offset="1" style="stop-color:#63E6FF"/>
</linearGradient>
<rect x="574.5" y="763.5" display="none" fill="url(#SVGID_2_)" stroke="#31ABFF" stroke-miterlimit="10" width="122" height="87"/>
<path display="none" fill="#FFFFFF" d="M607.486,775.877c1.204-0.21,3.011-0.367,4.87-0.367c2.54,0,4.268,0.419,5.444,1.414
	c0.971,0.813,1.521,2.043,1.521,3.535c0,2.278-1.545,3.823-3.194,4.425v0.079c1.257,0.471,2.016,1.701,2.461,3.403
	c0.55,2.198,1.021,4.242,1.389,4.923h-3.324c-0.264-0.523-0.683-1.964-1.18-4.163c-0.498-2.305-1.336-3.037-3.169-3.09h-1.623v7.253
	h-3.192L607.486,775.877L607.486,775.877z M610.681,783.68h1.911c2.174,0,3.535-1.15,3.535-2.904c0-1.938-1.361-2.828-3.456-2.828
	c-1.021,0-1.676,0.078-1.99,0.155V783.68z"/>
<path display="none" fill="#FFFFFF" d="M632.256,785.46h-6.65v5.185h7.438v2.646h-10.656v-17.648h10.266v2.646h-7.044v4.557h6.649
	L632.256,785.46L632.256,785.46z"/>
<path display="none" fill="#FFFFFF" d="M639.404,788.288l-1.521,5.001h-3.325l5.656-17.648h4.11l5.732,17.648h-3.456l-1.598-5.001
	H639.404z M644.458,785.854l-1.388-4.348c-0.34-1.073-0.628-2.275-0.893-3.299h-0.052c-0.262,1.021-0.523,2.252-0.838,3.299
	l-1.361,4.348H644.458z"/>
<path display="none" fill="#FFFFFF" d="M652.521,775.877c1.203-0.21,3.012-0.367,4.869-0.367c2.54,0,4.27,0.419,5.446,1.414
	c0.969,0.813,1.521,2.043,1.521,3.535c0,2.278-1.547,3.823-3.194,4.425v0.079c1.257,0.471,2.016,1.701,2.461,3.403
	c0.55,2.198,1.021,4.242,1.388,4.923h-3.324c-0.263-0.523-0.682-1.964-1.18-4.163c-0.497-2.305-1.335-3.037-3.168-3.09h-1.623v7.253
	h-3.192v-17.412H652.521L652.521,775.877z M655.717,783.68h1.911c2.174,0,3.535-1.15,3.535-2.904c0-1.938-1.361-2.828-3.456-2.828
	c-1.021,0-1.676,0.078-1.99,0.155V783.68z"/>
<path display="none" fill="#FFFFFF" d="M654.34,832h-35.68c-3.121,0-5.66-2.539-5.66-5.66v-19.68c0-3.121,2.539-5.66,5.66-5.66
	h35.68c3.121,0,5.66,2.539,5.66,5.66v19.68C660,829.461,657.461,832,654.34,832z M618.66,804c-1.467,0-2.66,1.193-2.66,2.66v19.68
	c0,1.467,1.193,2.66,2.66,2.66h35.68c1.467,0,2.66-1.193,2.66-2.66v-19.68c0-1.467-1.193-2.66-2.66-2.66H618.66z"/>
<path display="none" fill="#FFFFFF" d="M626.822,814.006l3.49,0.505l-2.15-6.703l-7.024,5.388l3.361,0.482
	c-7.017,9.952,8.393,19.228,0.442,30.322c0.664,0,1.504,0,2.561,0C635.366,833.696,620.365,823.848,626.822,814.006z"/>
<path display="none" fill="#FFFFFF" d="M636.807,814.006l3.49,0.505l-2.147-6.703l-7.024,5.388l3.361,0.482
	c-7.019,9.952,8.394,19.228,0.44,30.322c0.665,0,1.505,0,2.563,0C645.351,833.696,630.352,823.848,636.807,814.006z"/>
<path display="none" fill="#FFFFFF" d="M646.793,814.006l3.49,0.505l-2.15-6.703l-7.022,5.388l3.359,0.482
	c-7.017,9.952,8.396,19.228,0.442,30.322c0.665,0,1.505,0,2.562,0C655.337,833.696,640.337,823.848,646.793,814.006z"/>
<text transform="matrix(1 0 0 1 605.627 793.2891)" display="none" fill="#31ABFF" enable-background="new    " font-family="'MyriadPro-Semibold'" font-size="26.1844">REAR</text>
<path display="none" fill="none" stroke="#31ABFF" stroke-width="3" stroke-miterlimit="10" d="M658.5,826.34
	c0,2.298-1.862,4.16-4.16,4.16h-35.68c-2.298,0-4.16-1.862-4.16-4.16v-19.68c0-2.298,1.862-4.16,4.16-4.16h35.68
	c2.298,0,4.16,1.862,4.16,4.16V826.34z"/>
<path display="none" fill="#31ABFF" d="M626.822,814.006l3.49,0.505l-2.15-6.703l-7.024,5.388l3.361,0.482
	c-7.017,9.952,8.393,19.228,0.442,30.322c0.664,0,1.504,0,2.561,0C635.366,833.696,620.365,823.848,626.822,814.006z"/>
<path display="none" fill="#31ABFF" d="M636.807,814.006l3.49,0.505l-2.147-6.703l-7.024,5.388l3.361,0.482
	c-7.019,9.952,8.394,19.228,0.44,30.322c0.665,0,1.505,0,2.563,0C645.351,833.696,630.352,823.848,636.807,814.006z"/>
<path display="none" fill="#31ABFF" d="M646.793,814.006l3.49,0.505l-2.15-6.703l-7.022,5.388l3.359,0.482
	c-7.017,9.952,8.396,19.228,0.442,30.322c0.665,0,1.505,0,2.562,0C655.337,833.696,640.337,823.848,646.793,814.006z"/>
</svg>
