<?xml version="1.0" encoding="utf-8"?>
<!-- Generator: Adobe Illustrator 16.0.0, SVG Export Plug-In . SVG Version: 6.00 Build 0)  -->
<!DOCTYPE svg PUBLIC "-//W3C//DTD SVG 1.1//EN" "http://www.w3.org/Graphics/SVG/1.1/DTD/svg11.dtd">
<svg version="1.1" id="Layer_1" xmlns="http://www.w3.org/2000/svg" xmlns:xlink="http://www.w3.org/1999/xlink" x="0px" y="0px"
	 width="112px" height="88px" viewBox="0 0 112 88" enable-background="new 0 0 112 88" xml:space="preserve">
<linearGradient id="SVGID_1_" gradientUnits="userSpaceOnUse" x1="-107.9995" y1="1649" x2="-107.9997" y2="749.8912" gradientTransform="matrix(1 0 0 1 468 -703)">
	<stop  offset="0" style="stop-color:#041724"/>
	<stop  offset="1" style="stop-color:#000000"/>
</linearGradient>
<rect display="none" fill="url(#SVGID_1_)" width="720" height="1001"/>
<rect x="436" y="763.898" display="none" fill="#31ABFF" fill-opacity="0.29" stroke="#31ABFF" stroke-width="0.8472" stroke-miterlimit="10" stroke-opacity="0.64" width="110.5" height="86.563"/>
<g>
	
		<rect x="0.75" y="0.719" fill-opacity="0.29" stroke="#B2F0FF" stroke-width="0.8472" stroke-miterlimit="10" stroke-opacity="0.64" width="110.5" height="86.563"/>
	<path fill="#B2F0FF" d="M78.881,63.463c-3.802,0-6.805-2.762-7.491-6.643H34.5l-0.288-0.267c-0.001-0.001-0.14-0.118-0.378-0.207
		c-0.67,3.74-3.627,6.273-7.49,6.273c-3.139,0-5.975-2.248-7.109-5.55c-0.758-0.104-2.006-0.408-2.383-1.285
		c-0.2-0.147-0.755-0.396-1.169-0.582c-0.405-0.183-0.849-0.381-1.28-0.604c-2.414-1.254-1.729-8.89-1.722-8.964
		c0.161-1.384,0.531-2.293,0.892-3.176c0.177-0.433,0.343-0.843,0.481-1.307c0.55-1.818,1.523-2.813,3.861-3.943
		c2.149-1.035,15.707-2.548,18.307-2.828c3.779-2.869,9.729-7.446,10.271-8.022c1.157-1.229,4.437-2.538,8.232-2.538l26.052,0.006
		c9.494,1.017,10.104,1.436,10.336,1.591c0.786,0.536,0.847,1.469,0.54,2.313c0.687,1.097,2.567,4.021,4.767,6.741
		c1.461,0.885,1.531,2.373,1.33,3.194v7.488l1,0.582v5.14l-0.585,0.27c-0.036,0.016-3.613,1.644-7.973,3.282
		c-0.97,0.362-2.26,0.65-3.696,0.83C86.17,59.846,82.879,63.463,78.881,63.463z M72.255,54.107l0.982,0.014l0.004,1.069
		c0.034,3.573,2.571,6.271,5.753,6.271c3.059,0,5.756-3.186,5.756-6.957v-0.915l0.795-0.23c1.619-0.146,3.003-0.431,4.001-0.806
		c3.269-1.229,6.028-2.448,7.204-2.971v-2.697l-1-0.581v-8.938l0.051-0.153c0.061-0.2,0.137-0.747-0.504-1.084l-0.181-0.095
		l-0.129-0.158c-2.904-3.563-5.229-7.402-5.324-7.563l-0.311-0.514l0.307-0.515c0.04-0.07,0.08-0.161,0.109-0.246
		c-1.272-0.287-5.417-0.816-9.151-1.219H54.726c-3.521,0-6.149,1.243-6.775,1.908c-0.832,0.884-9.095,7.164-10.74,8.414
		l-0.222,0.168l-0.276,0.027c-6.159,0.661-16.474,1.973-17.927,2.674c-1.999,0.966-2.484,1.618-2.817,2.721
		c-0.167,0.554-0.357,1.025-0.545,1.48c-0.322,0.792-0.626,1.539-0.756,2.651c-0.272,2.331,0.044,6.406,0.688,6.979
		c0.363,0.186,0.771,0.365,1.146,0.533c1.043,0.469,1.824,0.817,2.134,1.479c0.271,0.135,0.93,0.27,1.196,0.27l0.85-0.081
		l0.274,0.816c0.726,2.803,2.939,4.761,5.389,4.761c3.197,0,5.402-2.127,5.617-5.419l0.054-0.819l0.815-0.105
		c1.106-0.143,1.945,0.255,2.391,0.544h36.021l-0.003-0.64L72.255,54.107z"/>
	<path fill="#B2F0FF" d="M81.559,43.424L71.75,36.59v4.23H56.32c-2.555,0-3.57-1.224-3.57-2v-6h-5v6.131l0.354,0.112
		c0.197,2.366,2.441,6.757,8.219,6.757H71.75v4.439L81.559,43.424z"/>
</g>
<linearGradient id="SVGID_2_" gradientUnits="userSpaceOnUse" x1="22.9995" y1="1468.6846" x2="22.9995" y2="1552.0071" gradientTransform="matrix(1 0 0 1 468 -703)">
	<stop  offset="0.5092" style="stop-color:#31ABFF;stop-opacity:0"/>
	<stop  offset="0.9018" style="stop-color:#31ABFF"/>
	<stop  offset="1" style="stop-color:#63E6FF"/>
</linearGradient>
<rect x="435.5" y="763.5" display="none" fill="url(#SVGID_2_)" stroke="#31ABFF" stroke-miterlimit="10" width="111" height="87"/>
<path display="none" fill="#FFFFFF" d="M514.131,826.643c-3.802,0-6.805-2.762-7.491-6.643h-36.89l-0.288-0.267
	c-0.001-0.001-0.14-0.118-0.378-0.207c-0.67,3.74-3.627,6.273-7.49,6.273c-3.139,0-5.975-2.248-7.109-5.55
	c-0.758-0.104-2.006-0.408-2.383-1.285c-0.2-0.147-0.755-0.396-1.169-0.582c-0.405-0.183-0.849-0.381-1.28-0.604
	c-2.414-1.254-1.729-8.89-1.722-8.964c0.161-1.384,0.531-2.293,0.892-3.176c0.177-0.433,0.343-0.843,0.481-1.307
	c0.55-1.818,1.523-2.813,3.861-3.943c2.149-1.035,15.707-2.548,18.307-2.828c3.779-2.869,9.729-7.446,10.271-8.022
	c1.157-1.229,4.437-2.538,8.232-2.538l26.052,0.006c9.494,1.017,10.104,1.436,10.336,1.591c0.786,0.536,0.847,1.469,0.54,2.313
	c0.687,1.097,2.567,4.021,4.767,6.741c1.461,0.885,1.531,2.373,1.33,3.194v7.488l1,0.582v5.14l-0.585,0.27
	c-0.036,0.016-3.613,1.644-7.973,3.282c-0.97,0.362-2.26,0.65-3.696,0.83C521.42,823.025,518.129,826.643,514.131,826.643z
	 M507.505,817.287l0.982,0.014l0.004,1.069c0.034,3.573,2.571,6.271,5.753,6.271c3.059,0,5.756-3.186,5.756-6.957v-0.915l0.795-0.23
	c1.619-0.146,3.003-0.431,4.001-0.806c3.269-1.229,6.028-2.448,7.204-2.971v-2.697l-1-0.581v-8.938l0.051-0.153
	c0.061-0.2,0.137-0.747-0.504-1.084l-0.181-0.095l-0.129-0.158c-2.904-3.563-5.229-7.402-5.324-7.563l-0.311-0.514l0.307-0.515
	c0.04-0.07,0.08-0.161,0.109-0.246c-1.272-0.287-5.417-0.816-9.151-1.219h-25.892c-3.521,0-6.149,1.243-6.775,1.908
	c-0.832,0.884-9.095,7.164-10.74,8.414l-0.222,0.168l-0.276,0.027c-6.159,0.661-16.474,1.973-17.927,2.674
	c-1.999,0.966-2.484,1.618-2.817,2.721c-0.167,0.554-0.357,1.025-0.545,1.48c-0.322,0.792-0.626,1.539-0.756,2.651
	c-0.272,2.331,0.044,6.406,0.688,6.979c0.363,0.186,0.771,0.365,1.146,0.533c1.043,0.469,1.824,0.817,2.134,1.479
	c0.271,0.135,0.93,0.27,1.196,0.27l0.85-0.081l0.274,0.816c0.726,2.803,2.939,4.761,5.389,4.761c3.197,0,5.402-2.127,5.617-5.419
	l0.054-0.819l0.815-0.105c1.106-0.143,1.945,0.255,2.391,0.544h36.021l-0.003-0.64L507.505,817.287z"/>
<path display="none" fill="#FFFFFF" d="M516.809,806.604L507,799.77V804h-15.43c-2.555,0-3.57-1.224-3.57-2v-6h-5v6.131l0.354,0.112
	c0.197,2.366,2.441,6.757,8.219,6.757H507v4.439L516.809,806.604z"/>
<path display="none" fill="none" stroke="#31ABFF" stroke-width="2" stroke-miterlimit="10" d="M532,808.908v-8.2
	c0,0,0.497-1.502-0.987-2.283c-2.894-3.552-5.243-7.45-5.243-7.45s0.663-1.119,0.029-1.553S515.921,788,515.921,788h-25.942
	c-3.782,0-6.689,1.356-7.507,2.224c-0.814,0.867-10.614,8.304-10.614,8.304s-16.104,1.728-18.256,2.766
	c-2.151,1.04-2.896,1.86-3.341,3.332c-0.443,1.474-1.113,2.401-1.337,4.308c-0.223,1.907-0.146,7.269,1.188,7.96
	c1.336,0.692,2.746,1.118,2.895,1.642c0.148,0.52,1.631,0.773,2.076,0.773c0.021,0,0.074-0.007,0.156-0.015
	c0.823,3.188,3.355,5.511,6.354,5.511c3.494,0,6.354-2.351,6.615-6.354c1.175-0.152,1.934,0.552,1.934,0.552h35.021h2.332
	c0,0-0.003-0.743-0.003-0.713c0,4.284,2.972,7.354,6.64,7.354c3.669,0,6.644-3.674,6.644-7.957c0-0.019-0.003-0.135-0.003-0.149
	c1.687-0.15,3.227-0.454,4.319-0.865c4.378-1.646,7.909-3.257,7.909-3.257v-3.922L532,808.908z"/>
<path display="none" fill="#31ABFF" d="M516.809,806.604L507,799.77V804h-15.43c-2.555,0-3.57-1.224-3.57-2v-6h-5v6.131l0.354,0.112
	c0.197,2.366,2.441,6.757,8.219,6.757H507v4.439L516.809,806.604z"/>
</svg>
