<?xml version="1.0" encoding="UTF-8" standalone="no"?>
<!-- Generator: Adobe Illustrator 16.0.0, SVG Export Plug-In . SVG Version: 6.00 Build 0)  -->

<svg
   xmlns:dc="http://purl.org/dc/elements/1.1/"
   xmlns:cc="http://creativecommons.org/ns#"
   xmlns:rdf="http://www.w3.org/1999/02/22-rdf-syntax-ns#"
   xmlns:svg="http://www.w3.org/2000/svg"
   xmlns="http://www.w3.org/2000/svg"
   xmlns:sodipodi="http://sodipodi.sourceforge.net/DTD/sodipodi-0.dtd"
   xmlns:inkscape="http://www.inkscape.org/namespaces/inkscape"
   version="1.1"
   id="Layer_1"
   x="0px"
   y="0px"
   width="123px"
   height="88px"
   viewBox="0 0 123 88"
   enable-background="new 0 0 123 88"
   xml:space="preserve"
   inkscape:version="0.48.4 r9939"
   sodipodi:docname="fan_dir_up_off.svg"><metadata
     id="metadata69"><rdf:RDF><cc:Work
         rdf:about=""><dc:format>image/svg+xml</dc:format><dc:type
           rdf:resource="http://purl.org/dc/dcmitype/StillImage" /><dc:title></dc:title></cc:Work></rdf:RDF></metadata><defs
     id="defs67"><filter
       id="filter3814"
       inkscape:label="filter3814"
       inkscape:menu="Shadows and Glows"
       inkscape:menu-tooltip="Adds a colorizable glow inside"
       color-interpolation-filters="sRGB"><feGaussianBlur
         id="feGaussianBlur3816"
         stdDeviation="12"
         result="result8" /><feComposite
         id="feComposite3818"
         in2="result8"
         result="result6"
         in="SourceGraphic"
         operator="in" /><feComposite
         id="feComposite3820"
         in2="result6"
         operator="in"
         result="result11" /><feFlood
         id="feFlood3822"
         result="result10"
         in="result11"
         flood-opacity="1"
         flood-color="rgb(83,181,206)" /><feBlend
         id="feBlend3824"
         in2="result10"
         mode="normal"
         in="result11"
         result="result12" /><feComposite
         id="feComposite3826"
         in2="SourceGraphic"
         result="result2"
         operator="in"
         in="result12" /></filter><filter
       id="filter3814-9"
       inkscape:label="filter3814"
       inkscape:menu="Shadows and Glows"
       inkscape:menu-tooltip="Adds a colorizable glow inside"
       color-interpolation-filters="sRGB"><feGaussianBlur
         id="feGaussianBlur3816-2"
         stdDeviation="12"
         result="result8" /><feComposite
         id="feComposite3818-0"
         in2="result8"
         result="result6"
         in="SourceGraphic"
         operator="in" /><feComposite
         id="feComposite3820-7"
         in2="result6"
         operator="in"
         result="result11" /><feFlood
         id="feFlood3822-0"
         result="result10"
         in="result11"
         flood-opacity="1"
         flood-color="rgb(83,181,206)" /><feBlend
         id="feBlend3824-4"
         in2="result10"
         mode="normal"
         in="result11"
         result="result12" /><feComposite
         id="feComposite3826-2"
         in2="SourceGraphic"
         result="result2"
         operator="in"
         in="result12" /></filter></defs><sodipodi:namedview
     pagecolor="#ffffff"
     bordercolor="#666666"
     borderopacity="1"
     objecttolerance="10"
     gridtolerance="10"
     guidetolerance="10"
     inkscape:pageopacity="0"
     inkscape:pageshadow="2"
     inkscape:window-width="1725"
     inkscape:window-height="868"
     id="namedview65"
     showgrid="false"
     inkscape:zoom="4.7479675"
     inkscape:cx="44.992291"
     inkscape:cy="47.049892"
     inkscape:window-x="75"
     inkscape:window-y="34"
     inkscape:window-maximized="0"
     inkscape:current-layer="Layer_1" /><linearGradient
     id="SVGID_1_"
     gradientUnits="userSpaceOnUse"
     x1="-342"
     y1="-996"
     x2="-342.0004"
     y2="-96.8916"
     gradientTransform="matrix(1 0 0 -1 702 -50)"><stop
       offset="0"
       style="stop-color:#041724"
       id="stop4" /><stop
       offset="1"
       style="stop-color:#000000"
       id="stop6" /></linearGradient><rect
     display="none"
     fill="url(#SVGID_1_)"
     width="720"
     height="1001"
     id="rect8" /><rect
     x="24"
     y="876.898"
     display="none"
     fill="#31ABFF"
     fill-opacity="0.29"
     stroke="#31ABFF"
     stroke-width="0.8902"
     stroke-miterlimit="10"
     stroke-opacity="0.64"
     width="122"
     height="86.563"
     id="rect10" /><rect
     x="0.5"
     y="0.719"
     stroke-miterlimit="10"
     width="122"
     height="86.563"
     id="rect12"
     style="fill:#000000;fill-opacity:1;opacity:0.80000000000000004;stroke:#ffffff;stroke-opacity:1;filter:url(#filter3814)"
     stroke-opacity="0.64"
     stroke-width="0.8902"
     stroke="#B2F0FF"
     fill-opacity="0.29" /><g
     id="g14"
     style="fill:#ffffff;fill-opacity:1"><g
       id="g16"
       style="fill:#ffffff;fill-opacity:1"><g
         id="g18"
         style="fill:#ffffff;fill-opacity:1"><circle
           fill="#B2F0FF"
           cx="90.361"
           cy="25.457"
           r="8.235"
           id="circle20"
           style="fill:#ffffff;fill-opacity:1" /></g><g
         id="g22"
         style="fill:#ffffff;fill-opacity:1"><path
           fill="#B2F0FF"
           d="M92.639,36.886l-1.035-0.57c-2.858-1.577-6.457-0.536-8.035,2.323l-6.644,12.052l-13.157-4.314     c-3.01-0.984-6.572,0.184-9.143,3.184l0.004,0.002c-0.451,0.41-0.877,0.873-1.263,1.396L42.473,65.699     c-1.68,2.271-1.606,5.139,0.098,6.486l0.617,0.483c1.707,1.351,4.513,0.758,6.334-1.399l11.504-13.621l15.162,5.821     c1.318,0.507,2.729,0.664,4.067,0.523c2.313,0.266,4.661-0.854,5.854-3.021l8.853-16.057     C96.539,42.061,95.499,38.464,92.639,36.886z"
           id="path24"
           style="fill:#ffffff;fill-opacity:1" /></g></g></g><polygon
     fill="#B2F0FF"
     points="47.238,34.82 32.978,17.121 18.718,34.82 25.5,34.82 25.5,50.82 40.5,50.82 40.5,34.82 "
     id="polygon26"
     style="fill:#ffffff;fill-opacity:1" /><linearGradient
     id="SVGID_2_"
     gradientUnits="userSpaceOnUse"
     x1="-617.5"
     y1="-927.6396"
     x2="-617.5"
     y2="-1012.9438"
     gradientTransform="matrix(1 0 0 -1 702 -50)"><stop
       offset="0.5092"
       style="stop-color:#31ABFF;stop-opacity:0"
       id="stop29" /><stop
       offset="0.9018"
       style="stop-color:#31ABFF"
       id="stop31" /><stop
       offset="1"
       style="stop-color:#63E6FF"
       id="stop33" /></linearGradient><rect
     x="23.5"
     y="876.5"
     display="none"
     fill="url(#SVGID_2_)"
     stroke="#31ABFF"
     stroke-miterlimit="10"
     width="122"
     height="87"
     id="rect35" /><g
     display="none"
     id="g37"><g
       display="inline"
       id="g39"><g
         id="g41"><circle
           fill="#FFFFFF"
           cx="113.861"
           cy="901.636"
           r="8.235"
           id="circle43" /></g><g
         id="g45"><path
           fill="#FFFFFF"
           d="M116.139,913.065l-1.035-0.57c-2.858-1.577-6.457-0.536-8.035,2.323l-6.644,12.053l-13.157-4.315     c-3.01-0.983-6.572,0.184-9.143,3.184l0.004,0.002c-0.451,0.41-0.877,0.873-1.263,1.396L65.973,941.88     c-1.681,2.271-1.606,5.139,0.098,6.486l0.617,0.483c1.707,1.352,4.513,0.759,6.334-1.398l11.504-13.622l15.162,5.822     c1.317,0.507,2.729,0.664,4.066,0.522c2.313,0.267,4.661-0.854,5.854-3.02l8.854-16.058     C120.039,918.24,118.999,914.644,116.139,913.065z"
           id="path47" /></g></g></g><polygon
     display="none"
     fill="#FFFFFF"
     points="70.738,911 56.478,893.301 42.218,911 49,911 49,927 64,927 64,911 "
     id="polygon49" /><g
     display="none"
     id="g51"><g
       display="inline"
       id="g53"><g
         display="none"
         id="g55"><circle
           display="inline"
           fill="#31ABFF"
           cx="113.861"
           cy="901.636"
           r="8.235"
           id="circle57" /></g><g
         display="none"
         id="g59"><path
           display="inline"
           fill="#31ABFF"
           d="M116.139,913.065l-1.035-0.57c-2.858-1.577-6.457-0.536-8.035,2.323l-6.644,12.053     l-13.157-4.315c-3.01-0.983-6.572,0.184-9.143,3.184l0.004,0.002c-0.451,0.41-0.877,0.873-1.263,1.396L65.973,941.88     c-1.681,2.271-1.606,5.139,0.098,6.486l0.617,0.483c1.707,1.352,4.513,0.759,6.334-1.398l11.504-13.622l15.162,5.822     c1.317,0.507,2.729,0.664,4.066,0.522c2.313,0.267,4.661-0.854,5.854-3.02l8.854-16.058     C120.039,918.24,118.999,914.644,116.139,913.065z"
           id="path61" /></g></g></g><polygon
     display="none"
     fill="#31ABFF"
     points="70.738,911 56.478,893.301 42.218,911 49,911 49,927 64,927 64,911 "
     id="polygon63" /><rect
     x="0.81678134"
     y="0.8058303"
     stroke-miterlimit="10"
     width="122"
     height="86.563004"
     id="rect12-6"
     style="opacity:0.8;fill:none;stroke:#ffffff;stroke-width:0.89020002;stroke-miterlimit:10;stroke-opacity:1" /></svg>