<?xml version="1.0" encoding="UTF-8" standalone="no"?>
<!-- Generator: Adobe Illustrator 16.0.0, SVG Export Plug-In . SVG Version: 6.00 Build 0)  -->

<svg
   xmlns:dc="http://purl.org/dc/elements/1.1/"
   xmlns:cc="http://creativecommons.org/ns#"
   xmlns:rdf="http://www.w3.org/1999/02/22-rdf-syntax-ns#"
   xmlns:svg="http://www.w3.org/2000/svg"
   xmlns="http://www.w3.org/2000/svg"
   xmlns:xlink="http://www.w3.org/1999/xlink"
   xmlns:sodipodi="http://sodipodi.sourceforge.net/DTD/sodipodi-0.dtd"
   xmlns:inkscape="http://www.inkscape.org/namespaces/inkscape"
   version="1.1"
   id="Layer_1"
   x="0px"
   y="0px"
   width="111px"
   height="88px"
   viewBox="0 0 111 88"
   enable-background="new 0 0 111 88"
   xml:space="preserve"
   inkscape:version="0.48.4 r9939"
   sodipodi:docname="fan_control_auto_on.svg"><metadata
     id="metadata3153"><rdf:RDF><cc:Work
         rdf:about=""><dc:format>image/svg+xml</dc:format><dc:type
           rdf:resource="http://purl.org/dc/dcmitype/StillImage" /><dc:title /></cc:Work></rdf:RDF></metadata><sodipodi:namedview
     pagecolor="#ffffff"
     bordercolor="#666666"
     borderopacity="1"
     objecttolerance="10"
     gridtolerance="10"
     guidetolerance="10"
     inkscape:pageopacity="0"
     inkscape:pageshadow="2"
     inkscape:window-width="1167"
     inkscape:window-height="584"
     id="namedview3151"
     showgrid="false"
     inkscape:zoom="2.6306306"
     inkscape:cx="1.7106156"
     inkscape:cy="59.205475"
     inkscape:window-x="350"
     inkscape:window-y="75"
     inkscape:window-maximized="0"
     inkscape:current-layer="Layer_1" /><linearGradient
     id="SVGID_1_"
     gradientUnits="userSpaceOnUse"
     x1="-107.9995"
     y1="1649"
     x2="-107.9997"
     y2="749.8912"
     gradientTransform="matrix(1 0 0 1 468 -703)"><stop
       offset="0"
       style="stop-color:#041724"
       id="stop3067" /><stop
       offset="1"
       style="stop-color:#000000"
       id="stop3069" /></linearGradient><rect
     display="none"
     fill="url(#SVGID_1_)"
     width="720"
     height="1001"
     id="rect3071" /><rect
     x="305.25"
     y="763.898"
     display="none"
     fill="#31ABFF"
     fill-opacity="0.29"
     stroke="#31ABFF"
     stroke-width="0.8472"
     stroke-miterlimit="10"
     stroke-opacity="0.64"
     width="110.5"
     height="86.563"
     id="rect3073" /><g
     display="none"
     id="g3075"><g
       display="inline"
       id="g3077"><g
         id="g3079"><defs
           id="defs3081"><rect
             id="SVGID_2_"
             x="152"
             y="346"
             width="158"
             height="232" /></defs><clipPath
           id="SVGID_3_"><use
             xlink:href="#SVGID_2_"
             overflow="visible"
             id="use3085" /></clipPath><g
           clip-path="url(#SVGID_3_)"
           id="g3087"><text
             transform="matrix(1 0 0 1 160.3643 784.9795)"
             fill="#FFFFFF"
             font-family="'MyriadPro-Regular'"
             font-size="93.6032"
             id="text3089">20°</text>
<text
             transform="matrix(1 0 0 1 160.3643 888.7236)"
             fill="#FFFFFF"
             font-family="'MyriadPro-Regular'"
             font-size="93.6032"
             id="text3091">21°</text>
<text
             transform="matrix(1 0 0 1 160.3643 689.0361)"
             fill="#FFFFFF"
             font-family="'MyriadPro-Regular'"
             font-size="93.6032"
             id="text3093">19°</text>
<text
             transform="matrix(1 0 0 1 160.3643 591.3809)"
             fill="#FFFFFF"
             font-family="'MyriadPro-Regular'"
             font-size="93.6032"
             id="text3095">18°</text>
<text
             transform="matrix(1 0 0 1 160.3643 496.998)"
             fill="#FFFFFF"
             font-family="'MyriadPro-Regular'"
             font-size="93.6032"
             id="text3097">17°</text>
<text
             transform="matrix(1 0 0 1 160.3643 403.3945)"
             fill="#FFFFFF"
             font-family="'MyriadPro-Regular'"
             font-size="93.6032"
             id="text3099">16°</text>
</g></g></g></g><rect
     x="305.25"
     y="763.898"
     display="none"
     fill="#31ABFF"
     fill-opacity="0.29"
     stroke="#31ABFF"
     stroke-width="0.8472"
     stroke-miterlimit="10"
     stroke-opacity="0.64"
     width="110.5"
     height="86.563"
     id="rect3101" /><path
     display="none"
     fill="#31ABFF"
     d="M330.526,810.863l-1.711,5.637h-3.748l6.375-19.89h4.633l6.463,19.89h-3.896l-1.8-5.637  H330.526z M336.222,808.119l-1.563-4.898c-0.383-1.21-0.708-2.565-1.003-3.719h-0.061c-0.295,1.151-0.59,2.538-0.942,3.719  l-1.535,4.898H336.222z"
     id="path3103" /><path
     display="none"
     fill="#31ABFF"
     d="M347.971,796.61v11.598c0,3.896,1.623,5.695,4.073,5.695c2.626,0,4.19-1.803,4.19-5.695  V796.61h3.63v11.359c0,6.14-3.158,8.854-7.938,8.854c-4.604,0-7.584-2.567-7.584-8.823V796.61H347.971z"
     id="path3105" /><path
     display="none"
     fill="#31ABFF"
     d="M367.835,799.649h-5.666v-3.039h15.021v3.039h-5.727V816.5h-3.63L367.835,799.649  L367.835,799.649z"
     id="path3107" /><path
     display="none"
     fill="#31ABFF"
     d="M396.346,806.349c0,6.669-4.043,10.478-9.53,10.478c-5.606,0-9.147-4.278-9.147-10.122  c0-6.108,3.836-10.417,9.443-10.417C392.922,796.285,396.346,800.683,396.346,806.349z M381.502,806.644  c0,4.044,2.036,7.262,5.518,7.262c3.515,0,5.49-3.246,5.49-7.407c0-3.748-1.857-7.289-5.49-7.289  C383.42,799.207,381.502,802.542,381.502,806.644z"
     id="path3109" /><rect
     style="opacity:0.80000000000000004;fill:#000000;fill-opacity:1;stroke:#ffffff;stroke-opacity:1;filter:url(#filter6490)"
     x="0.5"
     y="0.5"
     width="110"
     height="87"
     id="rect3115" /><rect
     x="0.5"
     y="0.5"
     mask="url(#SVGID_5_)"
     width="110"
     height="87"
     id="rect3127"
     style="opacity:0.80000000000000004;fill:#000000;fill-opacity:1;stroke:#ffffff;stroke-opacity:0" /><defs
     id="defs3129"><defs
       id="defs3117"><filter
         id="Adobe_OpacityMaskFilter"
         filterUnits="userSpaceOnUse"
         x="0.5"
         y="0.5"
         width="110"
         height="87"
         color-interpolation-filters="sRGB"
         inkscape:label="Adobe_OpacityMaskFilter"><feColorMatrix
           type="matrix"
           values="-1 0 0 0 1  0 -1 0 0 1  0 0 -1 0 1  0 0 0 1 0"
           color-interpolation-filters="sRGB"
           result="source"
           id="feColorMatrix3120" /></filter></defs><filter
       id="filter6490"
       inkscape:label="Inner Glow"
       inkscape:menu="Shadows and Glows"
       inkscape:menu-tooltip="Adds a colorizable glow inside"
       color-interpolation-filters="sRGB"><feGaussianBlur
         id="feGaussianBlur6492"
         stdDeviation="12"
         result="result8" /><feComposite
         id="feComposite6494"
         in2="result8"
         result="result6"
         in="SourceGraphic"
         operator="in" /><feComposite
         id="feComposite6496"
         in2="result6"
         operator="in"
         result="result11" /><feFlood
         id="feFlood6498"
         result="result10"
         in="result11"
         flood-opacity="1"
         flood-color="rgb(83,181,206)" /><feBlend
         id="feBlend6500"
         in2="result10"
         mode="normal"
         in="result11"
         result="result12" /><feComposite
         id="feComposite6502"
         in2="SourceGraphic"
         result="result2"
         operator="in"
         in="result12" /></filter><filter
       id="filter6490-1"
       inkscape:label="Inner Glow"
       inkscape:menu="Shadows and Glows"
       inkscape:menu-tooltip="Adds a colorizable glow inside"
       color-interpolation-filters="sRGB"><feGaussianBlur
         id="feGaussianBlur6492-9"
         stdDeviation="12"
         result="result8" /><feComposite
         id="feComposite6494-1"
         in2="result8"
         result="result6"
         in="SourceGraphic"
         operator="in" /><feComposite
         id="feComposite6496-4"
         in2="result6"
         operator="in"
         result="result11" /><feFlood
         id="feFlood6498-8"
         result="result10"
         in="result11"
         flood-opacity="1"
         flood-color="rgb(83,181,206)" /><feBlend
         id="feBlend6500-6"
         in2="result10"
         mode="normal"
         in="result11"
         result="result12" /><feComposite
         id="feComposite6502-0"
         in2="SourceGraphic"
         result="result2"
         operator="in"
         in="result12" /></filter></defs><rect
     x="0.5"
     y="0.5"
     display="none"
     mask="url(#SVGID_4_)"
     fill="#53B5CE"
     width="110"
     height="87"
     id="rect3139" /><path
     fill="#FFFFFF"
     d="M25.526,47.863L23.815,53.5h-3.748l6.375-19.89h4.633l6.463,19.89h-3.896l-1.8-5.637H25.526z M31.222,45.119  l-1.563-4.898c-0.383-1.21-0.708-2.565-1.003-3.719h-0.061c-0.295,1.151-0.59,2.538-0.942,3.719l-1.535,4.898H31.222z"
     id="path3141" /><path
     fill="#FFFFFF"
     d="M42.971,33.61v11.598c0,3.896,1.623,5.695,4.073,5.695c2.626,0,4.19-1.803,4.19-5.695V33.61h3.63V44.97  c0,6.14-3.158,8.854-7.938,8.854c-4.604,0-7.584-2.567-7.584-8.823V33.61H42.971z"
     id="path3143" /><path
     fill="#FFFFFF"
     d="M62.835,36.649h-5.666V33.61H72.19v3.039h-5.727V53.5h-3.63L62.835,36.649L62.835,36.649z"
     id="path3145" /><path
     fill="#FFFFFF"
     d="M91.346,43.349c0,6.669-4.043,10.478-9.53,10.478c-5.606,0-9.147-4.278-9.147-10.122  c0-6.108,3.836-10.417,9.443-10.417C87.922,33.285,91.346,37.683,91.346,43.349z M76.502,43.644c0,4.044,2.036,7.262,5.518,7.262  c3.515,0,5.49-3.246,5.49-7.407c0-3.748-1.857-7.289-5.49-7.289C78.42,36.207,76.502,39.542,76.502,43.644z"
     id="path3147" /><text
     transform="matrix(1 0 0 1 324.4473 816.5)"
     display="none"
     fill="#31ABFF"
     enable-background="new    "
     font-family="'MyriadPro-Semibold'"
     font-size="29.5171"
     id="text3149">AUTO</text>
<rect
     style="opacity:0.8;fill:none;fill-opacity:1;stroke:#ffffff;stroke-opacity:1"
     x="0.56164414"
     y="0.84589106"
     width="110"
     height="87"
     id="rect3115-8" /></svg>