<?xml version="1.0" encoding="UTF-8" standalone="no"?>
<!-- Generator: Adobe Illustrator 16.0.0, SVG Export Plug-In . SVG Version: 6.00 Build 0)  -->

<svg
   xmlns:dc="http://purl.org/dc/elements/1.1/"
   xmlns:cc="http://creativecommons.org/ns#"
   xmlns:rdf="http://www.w3.org/1999/02/22-rdf-syntax-ns#"
   xmlns:svg="http://www.w3.org/2000/svg"
   xmlns="http://www.w3.org/2000/svg"
   xmlns:sodipodi="http://sodipodi.sourceforge.net/DTD/sodipodi-0.dtd"
   xmlns:inkscape="http://www.inkscape.org/namespaces/inkscape"
   version="1.1"
   id="Layer_1"
   x="0px"
   y="0px"
   width="123px"
   height="97px"
   viewBox="0 0 123 97"
   enable-background="new 0 0 123 97"
   xml:space="preserve"
   inkscape:version="0.48.4 r9939"
   sodipodi:docname="fan_dir_down_off.svg"><metadata
     id="metadata67"><rdf:RDF><cc:Work
         rdf:about=""><dc:format>image/svg+xml</dc:format><dc:type
           rdf:resource="http://purl.org/dc/dcmitype/StillImage" /></cc:Work></rdf:RDF></metadata><defs
     id="defs65"><filter
       id="filter3837"
       inkscape:label="Inner Glow"
       inkscape:menu="Shadows and Glows"
       inkscape:menu-tooltip="Adds a colorizable glow inside"
       color-interpolation-filters="sRGB"><feGaussianBlur
         id="feGaussianBlur3839"
         stdDeviation="12"
         result="result8" /><feComposite
         id="feComposite3841"
         in2="result8"
         result="result6"
         in="SourceGraphic"
         operator="in" /><feComposite
         id="feComposite3843"
         in2="result6"
         operator="in"
         result="result11" /><feFlood
         id="feFlood3845"
         result="result10"
         in="result11"
         flood-opacity="1"
         flood-color="rgb(83,181,206)" /><feBlend
         id="feBlend3847"
         in2="result10"
         mode="normal"
         in="result11"
         result="result12" /><feComposite
         id="feComposite3849"
         in2="SourceGraphic"
         result="result2"
         operator="in"
         in="result12" /></filter></defs><sodipodi:namedview
     pagecolor="#ffffff"
     bordercolor="#666666"
     borderopacity="1"
     objecttolerance="10"
     gridtolerance="10"
     guidetolerance="10"
     inkscape:pageopacity="0"
     inkscape:pageshadow="2"
     inkscape:window-width="1616"
     inkscape:window-height="903"
     id="namedview63"
     showgrid="false"
     inkscape:zoom="6.71464"
     inkscape:cx="52.906804"
     inkscape:cy="16.592146"
     inkscape:window-x="75"
     inkscape:window-y="34"
     inkscape:window-maximized="0"
     inkscape:current-layer="Layer_1" /><linearGradient
     id="SVGID_1_"
     gradientUnits="userSpaceOnUse"
     x1="15.1289"
     y1="1640"
     x2="15.1288"
     y2="740.8912"
     gradientTransform="matrix(1 0 0 1 468 -694)"><stop
       offset="0"
       style="stop-color:#041724"
       id="stop4" /><stop
       offset="1"
       style="stop-color:#000000"
       id="stop6" /></linearGradient><rect
     x="123.129"
     display="none"
     fill="url(#SVGID_1_)"
     width="720"
     height="1001"
     id="rect8" /><path
     display="none"
     fill="#31ABFF"
     fill-opacity="0.29"
     stroke="#31ABFF"
     stroke-width="0.8902"
     stroke-miterlimit="10"
     stroke-opacity="0.64"
     d="  M268.629,643.039V738.5h-122v-80.76C186.629,651.722,227.629,646.832,268.629,643.039z"
     id="path10" /><path
     style="fill-opacity:1;stroke:#b2f0ff;stroke-width:0.84719997999999985;stroke-miterlimit:10;stroke-opacity:0.63999998999999996;fill:#000000;opacity:0.80000000000000004;filter:url(#filter3837)"
     inkscape:connector-curvature="0"
     id="path14"
     d="M 122.5,0.77 V 96.23 H 0.5 V 15.47 c 40,-6.018 81,-10.907 122,-14.7 z"
     stroke-miterlimit="10" /><g
     id="g16"
     style="fill:#ffffff;fill-opacity:1"><g
       id="g18"
       style="fill:#ffffff;fill-opacity:1"><g
         id="g20"
         style="fill:#ffffff;fill-opacity:1"><circle
           style="fill:#ffffff;fill-opacity:1"
           sodipodi:ry="8.2349997"
           sodipodi:rx="8.2349997"
           sodipodi:cy="34.188999"
           sodipodi:cx="90.862"
           id="circle22"
           r="8.2349997"
           cy="34.188999"
           cx="90.862" /><path
           style="fill:#ffffff;fill-opacity:1"
           inkscape:connector-curvature="0"
           id="path24"
           d="m 93.139,45.619 -1.035,-0.568 c -2.859,-1.577 -6.457,-0.536 -8.033,2.321 L 77.426,59.427 64.268,55.112 c -3.01,-0.986 -6.571,0.18 -9.143,3.18 l 0.004,0.004 c -0.449,0.408 -0.876,0.873 -1.262,1.396 L 42.975,74.434 c -1.681,2.271 -1.607,5.14 0.098,6.484 l 0.617,0.487 c 1.707,1.351 4.513,0.756 6.334,-1.401 L 61.529,66.383 76.69,72.204 c 1.32,0.509 2.729,0.665 4.067,0.524 2.313,0.265 4.662,-0.854 5.854,-3.02 l 8.852,-16.057 c 1.577,-2.858 0.536,-6.455 -2.324,-8.032 z" /></g><polygon
         style="fill:#ffffff;fill-opacity:1"
         id="polygon26"
         points="47.739,39.73 41,39.73 41,23.73 26,23.73 26,39.73 19.219,39.73 33.479,57.43 " /></g></g><linearGradient
     id="SVGID_2_"
     gradientUnits="userSpaceOnUse"
     x1="-260.3716"
     y1="1337.627"
     x2="-260.3716"
     y2="1431.4371"
     gradientTransform="matrix(1 0 0 1 468 -694)"><stop
       offset="0.5092"
       style="stop-color:#31ABFF;stop-opacity:0"
       id="stop29" /><stop
       offset="0.9018"
       style="stop-color:#31ABFF"
       id="stop31" /><stop
       offset="1"
       style="stop-color:#63E6FF"
       id="stop33" /></linearGradient><path
     display="none"
     fill="url(#SVGID_2_)"
     stroke="#31ABFF"
     stroke-miterlimit="10"
     d="M268.629,643.039V738.5h-122v-80.76  C186.629,651.722,227.629,646.832,268.629,643.039z"
     id="path35" /><g
     display="none"
     id="g37"><g
       display="inline"
       id="g39"><g
         id="g41"><circle
           fill="#FFFFFF"
           cx="236.991"
           cy="676.459"
           r="8.235"
           id="circle43" /><path
           fill="#FFFFFF"
           d="M239.268,687.889l-1.035-0.568c-2.859-1.577-6.457-0.536-8.033,2.321l-6.645,12.055l-13.158-4.315     c-3.01-0.986-6.571,0.18-9.143,3.18l0.004,0.004c-0.449,0.408-0.876,0.873-1.262,1.396l-10.893,14.743     c-1.681,2.271-1.607,5.14,0.098,6.484l0.617,0.487c1.707,1.351,4.513,0.756,6.334-1.401l11.505-13.621l15.161,5.821     c1.32,0.509,2.729,0.665,4.067,0.524c2.313,0.265,4.662-0.854,5.854-3.02l8.852-16.057     C243.169,693.063,242.128,689.466,239.268,687.889z"
           id="path45" /></g><polygon
         fill="#FFFFFF"
         points="165.348,682 179.607,699.699 193.868,682 187.129,682 187.129,666 172.129,666 172.129,682   "
         id="polygon47" /></g></g><g
     display="none"
     id="g49"><g
       display="inline"
       id="g51"><g
         display="none"
         id="g53"><circle
           display="inline"
           fill="#31ABFF"
           cx="236.991"
           cy="676.459"
           r="8.235"
           id="circle55" /><path
           display="inline"
           fill="#31ABFF"
           d="M239.268,687.889l-1.035-0.568c-2.859-1.577-6.457-0.536-8.033,2.321l-6.645,12.055     l-13.158-4.315c-3.01-0.986-6.571,0.18-9.143,3.18l0.004,0.004c-0.449,0.408-0.876,0.873-1.262,1.396l-10.893,14.743     c-1.681,2.271-1.607,5.14,0.098,6.484l0.617,0.487c1.707,1.351,4.513,0.756,6.334-1.401l11.505-13.621l15.161,5.821     c1.32,0.509,2.729,0.665,4.067,0.524c2.313,0.265,4.662-0.854,5.854-3.02l8.852-16.057     C243.169,693.063,242.128,689.466,239.268,687.889z"
           id="path57" /></g><polygon
         display="none"
         fill="#31ABFF"
         points="165.348,682 179.607,699.699 193.868,682 187.129,682 187.129,666 172.129,666     172.129,682   "
         id="polygon59" /></g></g><path
     display="none"
     fill="none"
     stroke="#00507F"
     stroke-miterlimit="10"
     d="M968.129,664.752  C828.971,627.465,638.581,610,484.129,610s-344.841,17.465-484,54.752"
     id="path61" /><path
     style="fill-opacity:0.28999998999999999;stroke:#ffffff;stroke-width:0.84719997999999985;stroke-miterlimit:10;stroke-opacity:1;fill:none"
     inkscape:connector-curvature="0"
     id="path14-7"
     d="M 122.42013,0.71937186 V 96.179366 H 0.42018397 V 15.419371 C 40.42019,9.4013718 81.420188,4.5123718 122.42013,0.71937186 z"
     stroke-miterlimit="10" /></svg>