<?xml version="1.0" encoding="UTF-8" standalone="no"?>
<!-- Generator: Adobe Illustrator 16.0.0, SVG Export Plug-In . SVG Version: 6.00 Build 0)  -->

<svg
   xmlns:dc="http://purl.org/dc/elements/1.1/"
   xmlns:cc="http://creativecommons.org/ns#"
   xmlns:rdf="http://www.w3.org/1999/02/22-rdf-syntax-ns#"
   xmlns:svg="http://www.w3.org/2000/svg"
   xmlns="http://www.w3.org/2000/svg"
   xmlns:xlink="http://www.w3.org/1999/xlink"
   xmlns:sodipodi="http://sodipodi.sourceforge.net/DTD/sodipodi-0.dtd"
   xmlns:inkscape="http://www.inkscape.org/namespaces/inkscape"
   version="1.1"
   id="Layer_1"
   x="0px"
   y="0px"
   width="123px"
   height="88px"
   viewBox="0 0 123 88"
   enable-background="new 0 0 123 88"
   xml:space="preserve"
   inkscape:version="0.48.4 r9939"
   sodipodi:docname="fan_dir_right_on.svg"><metadata
     id="metadata3361"><rdf:RDF><cc:Work
         rdf:about=""><dc:format>image/svg+xml</dc:format><dc:type
           rdf:resource="http://purl.org/dc/dcmitype/StillImage" /></cc:Work></rdf:RDF></metadata><defs
     id="defs3359"><defs
       id="defs3313"><filter
         height="88"
         width="123"
         y="0"
         x="0"
         filterUnits="userSpaceOnUse"
         id="Adobe_OpacityMaskFilter"><feColorMatrix
           id="feColorMatrix3316"
           result="source"
           color-interpolation-filters="sRGB"
           values="-1 0 0 0 1  0 -1 0 0 1  0 0 -1 0 1  0 0 0 1 0"
           type="matrix" /></filter></defs><filter
       id="filter4814"
       inkscape:label="Inner Glow"
       inkscape:menu="Shadows and Glows"
       inkscape:menu-tooltip="Adds a colorizable glow inside"
       color-interpolation-filters="sRGB"><feGaussianBlur
         id="feGaussianBlur4816"
         stdDeviation="12"
         result="result8" /><feComposite
         id="feComposite4818"
         in2="result8"
         result="result6"
         in="SourceGraphic"
         operator="in" /><feComposite
         id="feComposite4820"
         in2="result6"
         operator="in"
         result="result11" /><feFlood
         id="feFlood4822"
         result="result10"
         in="result11"
         flood-opacity="1"
         flood-color="rgb(83,181,206)" /><feBlend
         id="feBlend4824"
         in2="result10"
         mode="normal"
         in="result11"
         result="result12" /><feComposite
         id="feComposite4826"
         in2="SourceGraphic"
         result="result2"
         operator="in"
         in="result12" /></filter></defs><sodipodi:namedview
     pagecolor="#ffffff"
     bordercolor="#666666"
     borderopacity="1"
     objecttolerance="10"
     gridtolerance="10"
     guidetolerance="10"
     inkscape:pageopacity="0"
     inkscape:pageshadow="2"
     inkscape:window-width="996"
     inkscape:window-height="683"
     id="namedview3357"
     showgrid="false"
     inkscape:zoom="6.71464"
     inkscape:cx="33.276827"
     inkscape:cy="27.647221"
     inkscape:window-x="407"
     inkscape:window-y="88"
     inkscape:window-maximized="0"
     inkscape:current-layer="Layer_1" /><linearGradient
     id="SVGID_1_"
     gradientUnits="userSpaceOnUse"
     x1="-107.9995"
     y1="1649"
     x2="-107.9997"
     y2="749.8912"
     gradientTransform="matrix(1 0 0 1 468 -703)"><stop
       offset="0"
       style="stop-color:#041724"
       id="stop3281" /><stop
       offset="1"
       style="stop-color:#000000"
       id="stop3283" /></linearGradient><rect
     display="none"
     fill="url(#SVGID_1_)"
     width="720"
     height="1001"
     id="rect3285" /><rect
     x="24"
     y="763.898"
     display="none"
     fill="#31ABFF"
     fill-opacity="0.29"
     stroke="#31ABFF"
     stroke-width="0.8902"
     stroke-miterlimit="10"
     stroke-opacity="0.64"
     width="122"
     height="86.563"
     id="rect3287" /><rect
     x="24"
     y="763.898"
     display="none"
     fill="#31ABFF"
     fill-opacity="0.29"
     stroke="#31ABFF"
     stroke-width="0.8902"
     stroke-miterlimit="10"
     stroke-opacity="0.64"
     width="122"
     height="86.563"
     id="rect3289" /><g
     display="none"
     id="g3291"><g
       display="inline"
       id="g3293"><g
         display="none"
         id="g3295"><circle
           display="inline"
           fill="#31ABFF"
           cx="113.861"
           cy="789.944"
           r="8.235"
           id="circle3297" /></g><g
         display="none"
         id="g3299"><path
           display="inline"
           fill="#31ABFF"
           d="M116.139,801.373l-1.035-0.57c-2.859-1.577-6.457-0.535-8.035,2.323l-6.644,12.053     l-13.157-4.313c-3.01-0.986-6.572,0.181-9.143,3.181l0.004,0.002c-0.451,0.41-0.877,0.874-1.263,1.396l-10.894,14.741     c-1.68,2.271-1.606,5.141,0.098,6.486l0.617,0.486c1.707,1.349,4.513,0.756,6.334-1.401l11.504-13.622l15.162,5.822     c1.318,0.507,2.729,0.665,4.067,0.525c2.313,0.265,4.661-0.854,5.854-3.021l8.853-16.056     C120.039,806.548,118.999,802.951,116.139,801.373z"
           id="path3301" /></g></g></g><polygon
     display="none"
     fill="#31ABFF"
     points="56,812.11 73.699,797.85 56,783.59 56,790 40,790 40,805 56,805 "
     id="polygon3303" /><rect
     x="0.5"
     y="0.5"
     width="122"
     height="87"
     id="rect3309"
     style="opacity:0.80000000000000004;fill:#000000;fill-opacity:1;stroke:#ffffff;stroke-opacity:0;filter:url(#filter4828)" /><rect
     x="0.5"
     y="0.5"
     stroke-miterlimit="10"
     width="122"
     height="87"
     id="rect3311"
     style="fill:#000000;stroke:#ffffff;stroke-miterlimit:10;fill-opacity:1;opacity:0.80000000000000004;stroke-opacity:1;filter:url(#filter4814)" /><g
     style="opacity:0.75"
     id="g3323"
     mask="url(#SVGID_2_)"><rect
       style="opacity:0.8;fill:#53b5ce"
       id="rect3325"
       height="87"
       width="122"
       y="0.5"
       x="0.5" /><rect
       style="fill:none;stroke:#53b5ce;stroke-miterlimit:10"
       id="rect3327"
       height="87"
       width="122"
       stroke-miterlimit="10"
       y="0.5"
       x="0.5" /></g><g
     id="g3329"><g
       id="g3331"><g
         id="g3333"><circle
           fill="#FFFFFF"
           cx="90.861"
           cy="26.944"
           r="8.235"
           id="circle3335" /></g><g
         id="g3337"><path
           fill="#FFFFFF"
           d="M93.139,38.373l-1.035-0.57c-2.859-1.577-6.457-0.535-8.035,2.323l-6.644,12.053l-13.157-4.313     c-3.01-0.986-6.572,0.181-9.143,3.181l0.004,0.002c-0.451,0.41-0.877,0.874-1.263,1.396L42.973,67.186     c-1.68,2.271-1.606,5.141,0.098,6.486l0.617,0.486c1.707,1.349,4.513,0.756,6.334-1.401l11.504-13.622l15.162,5.822     c1.318,0.507,2.729,0.665,4.067,0.525c2.313,0.265,4.661-0.854,5.854-3.021l8.853-16.056     C97.039,43.548,95.999,39.951,93.139,38.373z"
           id="path3339" /></g></g></g><polygon
     fill="#FFFFFF"
     points="33,49.11 50.699,34.85 33,20.59 33,27 17,27 17,42 33,42 "
     id="polygon3341" /><g
     display="none"
     id="g3343"><g
       display="inline"
       id="g3345"><g
         display="none"
         id="g3347"><circle
           display="inline"
           fill="#31ABFF"
           cx="113.861"
           cy="789.944"
           r="8.235"
           id="circle3349" /></g><g
         display="none"
         id="g3351"><path
           display="inline"
           fill="#31ABFF"
           d="M116.139,801.373l-1.035-0.57c-2.859-1.577-6.457-0.535-8.035,2.323l-6.644,12.053     l-13.157-4.313c-3.01-0.986-6.572,0.181-9.143,3.181l0.004,0.002c-0.451,0.41-0.877,0.874-1.263,1.396l-10.894,14.741     c-1.68,2.271-1.606,5.141,0.098,6.486l0.617,0.486c1.707,1.349,4.513,0.756,6.334-1.401l11.504-13.622l15.162,5.822     c1.318,0.507,2.729,0.665,4.067,0.525c2.313,0.265,4.661-0.854,5.854-3.021l8.853-16.056     C120.039,806.548,118.999,802.951,116.139,801.373z"
           id="path3353" /></g></g></g><polygon
     display="none"
     fill="#31ABFF"
     points="56,812.11 73.699,797.85 56,783.59 56,790 40,790 40,805 56,805 "
     id="polygon3355" /><rect
     x="0.57227302"
     y="0.86626279"
     stroke-miterlimit="10"
     width="122"
     height="87"
     id="rect3311-4"
     style="opacity:0.80000000000000004;fill:none;fill-opacity:1;stroke:#ffffff;stroke-miterlimit:10;stroke-opacity:1;" /></svg>