<?xml version="1.0" encoding="UTF-8" standalone="no"?>
<!-- Generator: Adobe Illustrator 16.0.0, SVG Export Plug-In . SVG Version: 6.00 Build 0)  -->

<svg
   xmlns:dc="http://purl.org/dc/elements/1.1/"
   xmlns:cc="http://creativecommons.org/ns#"
   xmlns:rdf="http://www.w3.org/1999/02/22-rdf-syntax-ns#"
   xmlns:svg="http://www.w3.org/2000/svg"
   xmlns="http://www.w3.org/2000/svg"
   xmlns:xlink="http://www.w3.org/1999/xlink"
   xmlns:sodipodi="http://sodipodi.sourceforge.net/DTD/sodipodi-0.dtd"
   xmlns:inkscape="http://www.inkscape.org/namespaces/inkscape"
   version="1.1"
   id="Layer_1"
   x="0px"
   y="0px"
   width="112px"
   height="88px"
   viewBox="0 0 112 88"
   enable-background="new 0 0 112 88"
   xml:space="preserve"
   inkscape:version="0.48.4 r9939"
   sodipodi:docname="fan_control_ac_on.svg"><metadata
     id="metadata88"><rdf:RDF><cc:Work
         rdf:about=""><dc:format>image/svg+xml</dc:format><dc:type
           rdf:resource="http://purl.org/dc/dcmitype/StillImage" /></cc:Work></rdf:RDF></metadata><defs
     id="defs86"><defs
       id="defs56"><filter
         id="Adobe_OpacityMaskFilter"
         filterUnits="userSpaceOnUse"
         x="0.5"
         y="0.5"
         width="111"
         height="87"
         color-interpolation-filters="sRGB"><feColorMatrix
           type="matrix"
           values="-1 0 0 0 1  0 -1 0 0 1  0 0 -1 0 1  0 0 0 1 0"
           color-interpolation-filters="sRGB"
           result="source"
           id="feColorMatrix59" /></filter></defs><filter
       id="filter7065"
       inkscape:label="Inner Glow"
       inkscape:menu="Shadows and Glows"
       inkscape:menu-tooltip="Adds a colorizable glow inside"
       color-interpolation-filters="sRGB"><feGaussianBlur
         id="feGaussianBlur7067"
         stdDeviation="12"
         result="result8" /><feComposite
         id="feComposite7069"
         in2="result8"
         result="result6"
         in="SourceGraphic"
         operator="in" /><feComposite
         id="feComposite7071"
         in2="result6"
         operator="in"
         result="result11" /><feFlood
         id="feFlood7073"
         result="result10"
         in="result11"
         flood-opacity="1"
         flood-color="rgb(83,181,206)" /><feBlend
         id="feBlend7075"
         in2="result10"
         mode="normal"
         in="result11"
         result="result12" /><feComposite
         id="feComposite7077"
         in2="SourceGraphic"
         result="result2"
         operator="in"
         in="result12" /></filter><filter
       id="filter7079"
       inkscape:label="Inner Glow"
       inkscape:menu="Shadows and Glows"
       inkscape:menu-tooltip="Adds a colorizable glow inside"
       color-interpolation-filters="sRGB"><feGaussianBlur
         id="feGaussianBlur7081"
         stdDeviation="10"
         result="result8" /><feComposite
         id="feComposite7083"
         in2="result8"
         result="result6"
         in="SourceGraphic"
         operator="in" /><feComposite
         id="feComposite7085"
         in2="result6"
         operator="in"
         result="result11" /><feFlood
         id="feFlood7087"
         result="result10"
         in="result11"
         flood-opacity="1"
         flood-color="rgb(255,222,85)" /><feBlend
         id="feBlend7089"
         in2="result10"
         mode="normal"
         in="result11"
         result="result12" /><feComposite
         id="feComposite7091"
         in2="SourceGraphic"
         result="result2"
         operator="in"
         in="result12" /></filter></defs><sodipodi:namedview
     pagecolor="#ffffff"
     bordercolor="#666666"
     borderopacity="1"
     objecttolerance="10"
     gridtolerance="10"
     guidetolerance="10"
     inkscape:pageopacity="0"
     inkscape:pageshadow="2"
     inkscape:window-width="1225"
     inkscape:window-height="724"
     id="namedview84"
     showgrid="false"
     inkscape:zoom="2.6071429"
     inkscape:cx="-45.260274"
     inkscape:cy="44"
     inkscape:window-x="615"
     inkscape:window-y="90"
     inkscape:window-maximized="0"
     inkscape:current-layer="Layer_1" /><linearGradient
     id="SVGID_1_"
     gradientUnits="userSpaceOnUse"
     x1="-107.9995"
     y1="1649"
     x2="-107.9997"
     y2="749.8912"
     gradientTransform="matrix(1 0 0 1 468 -703)"><stop
       offset="0"
       style="stop-color:#041724"
       id="stop4" /><stop
       offset="1"
       style="stop-color:#000000"
       id="stop6" /></linearGradient><rect
     display="none"
     fill="url(#SVGID_1_)"
     width="720"
     height="1001"
     id="rect8" /><rect
     x="174.5"
     y="763.898"
     display="none"
     fill="#31ABFF"
     fill-opacity="0.29"
     stroke="#31ABFF"
     stroke-width="0.8472"
     stroke-miterlimit="10"
     stroke-opacity="0.64"
     width="111"
     height="87"
     id="rect10" /><g
     display="none"
     id="g12"><g
       display="inline"
       id="g14"><g
         id="g16"><defs
           id="defs18"><rect
             id="SVGID_2_"
             x="152"
             y="346"
             width="158"
             height="232" /></defs><clipPath
           id="SVGID_3_"><use
             xlink:href="#SVGID_2_"
             overflow="visible"
             id="use22" /></clipPath><g
           clip-path="url(#SVGID_3_)"
           id="g24"><text
             transform="matrix(1 0 0 1 160.3643 784.9795)"
             fill="#FFFFFF"
             font-family="'MyriadPro-Regular'"
             font-size="93.6032"
             id="text26">20°</text>
<text
             transform="matrix(1 0 0 1 160.3643 888.7236)"
             fill="#FFFFFF"
             font-family="'MyriadPro-Regular'"
             font-size="93.6032"
             id="text28">21°</text>
<text
             transform="matrix(1 0 0 1 160.3643 689.0361)"
             fill="#FFFFFF"
             font-family="'MyriadPro-Regular'"
             font-size="93.6032"
             id="text30">19°</text>
<text
             transform="matrix(1 0 0 1 160.3643 591.3809)"
             fill="#FFFFFF"
             font-family="'MyriadPro-Regular'"
             font-size="93.6032"
             id="text32">18°</text>
<text
             transform="matrix(1 0 0 1 160.3643 496.998)"
             fill="#FFFFFF"
             font-family="'MyriadPro-Regular'"
             font-size="93.6032"
             id="text34">17°</text>
<text
             transform="matrix(1 0 0 1 160.3643 403.3945)"
             fill="#FFFFFF"
             font-family="'MyriadPro-Regular'"
             font-size="93.6032"
             id="text36">16°</text>
</g></g></g></g><rect
     x="174.5"
     y="763.5"
     display="none"
     fill="#31ABFF"
     fill-opacity="0.29"
     stroke="#31ABFF"
     stroke-width="0.8472"
     stroke-miterlimit="10"
     stroke-opacity="0.64"
     width="111"
     height="87"
     id="rect38" /><g
     display="none"
     id="g40"><g
       display="inline"
       id="g42"><path
         display="none"
         fill="#31ABFF"
         d="M212.333,810.863l-1.711,5.637h-3.748l6.375-19.89h4.633l6.463,19.89h-3.896l-1.801-5.637    H212.333z M218.027,808.119l-1.563-4.898c-0.383-1.21-0.708-2.565-1.003-3.719h-0.059c-0.295,1.151-0.59,2.538-0.944,3.719    l-1.535,4.898H218.027z"
         id="path44" /><path
         display="none"
         fill="#31ABFF"
         d="M225.262,817.681l7.2-21.396H235l-7.201,21.396H225.262z"
         id="path46" /><path
         display="none"
         fill="#31ABFF"
         d="M251.32,815.91c-0.854,0.44-2.743,0.885-5.135,0.885c-6.314,0-10.15-3.954-10.15-10.004    c0-6.552,4.544-10.506,10.624-10.506c2.391,0,4.103,0.502,4.84,0.886l-0.797,2.892c-0.944-0.411-2.243-0.768-3.896-0.768    c-4.043,0-6.966,2.538-6.966,7.319c0,4.366,2.567,7.171,6.937,7.171c1.476,0,3.01-0.295,3.955-0.738L251.32,815.91z"
         id="path48" /></g></g><rect
     style="opacity:0.80000000000000004;fill:#000000;fill-opacity:1;stroke:#ffffff;stroke-opacity:0;filter:url(#filter7065)"
     x="0.5"
     y="0.5"
     width="111"
     height="87"
     id="rect54" /><rect
     x="0.5"
     y="0.5"
     mask="url(#SVGID_4_)"
     width="111"
     height="87"
     id="rect66"
     style="opacity:0.80000000000000004;fill:#000000;fill-opacity:1;stroke:#ffffff;stroke-opacity:0;filter:url(#filter7065)" /><rect
     x="0.5"
     y="0.5"
     fill="none"
     stroke="#FFFFFF"
     stroke-miterlimit="10"
     width="111"
     height="87"
     id="rect68" /><g
     id="g70"><g
       id="g72"><path
         fill="#FFFFFF"
         d="M38.333,47.863L36.622,53.5h-3.748l6.375-19.89h4.633l6.463,19.89h-3.896l-1.801-5.637H38.333z     M44.027,45.119l-1.563-4.898c-0.383-1.21-0.708-2.565-1.003-3.719h-0.059c-0.295,1.151-0.59,2.538-0.944,3.719l-1.535,4.898    H44.027z"
         id="path74" /><path
         fill="#FFFFFF"
         d="M51.262,54.681l7.2-21.396H61l-7.201,21.396H51.262z"
         id="path76" /><path
         fill="#FFFFFF"
         d="M77.32,52.91c-0.854,0.44-2.743,0.885-5.135,0.885c-6.314,0-10.15-3.954-10.15-10.004    c0-6.552,4.544-10.506,10.624-10.506c2.391,0,4.103,0.502,4.84,0.886l-0.797,2.892c-0.944-0.411-2.243-0.768-3.896-0.768    c-4.043,0-6.966,2.538-6.966,7.319c0,4.366,2.567,7.171,6.937,7.171c1.476,0,3.01-0.295,3.955-0.738L77.32,52.91z"
         id="path78" /></g></g><g
     display="none"
     id="g80"><text
       transform="matrix(1 0 0 1 206.2539 816.5)"
       display="inline"
       fill="#31ABFF"
       font-family="'MyriadPro-Semibold'"
       font-size="29.5171"
       id="text82">A/C</text>
</g></svg>