<?xml version="1.0" encoding="utf-8"?>
<!-- Generator: Adobe Illustrator 16.0.0, SVG Export Plug-In . SVG Version: 6.00 Build 0)  -->
<!DOCTYPE svg PUBLIC "-//W3C//DTD SVG 1.1//EN" "http://www.w3.org/Graphics/SVG/1.1/DTD/svg11.dtd">
<svg version="1.1" id="Layer_1" xmlns="http://www.w3.org/2000/svg" xmlns:xlink="http://www.w3.org/1999/xlink" x="0px" y="0px"
	 width="123px" height="88px" viewBox="0 0 123 88" enable-background="new 0 0 123 88" xml:space="preserve">
<linearGradient id="SVGID_1_" gradientUnits="userSpaceOnUse" x1="-107.9995" y1="1649" x2="-107.9997" y2="749.8912" gradientTransform="matrix(1 0 0 1 468 -703)">
	<stop  offset="0" style="stop-color:#041724"/>
	<stop  offset="1" style="stop-color:#000000"/>
</linearGradient>
<rect display="none" fill="url(#SVGID_1_)" width="720" height="1001"/>
<rect x="24" y="763.898" display="none" fill="#31ABFF" fill-opacity="0.29" stroke="#31ABFF" stroke-width="0.8902" stroke-miterlimit="10" stroke-opacity="0.64" width="122" height="86.563"/>
<g>
	
		<rect x="0.5" y="0.719" fill-opacity="0.29" stroke="#B2F0FF" stroke-width="0.8902" stroke-miterlimit="10" stroke-opacity="0.64" width="122" height="86.563"/>
	<g>
		<g>
			<g>
				<circle fill="#B2F0FF" cx="90.361" cy="26.764" r="8.235"/>
			</g>
			<g>
				<path fill="#B2F0FF" d="M92.639,38.193l-1.035-0.57c-2.859-1.577-6.457-0.535-8.035,2.323l-6.644,12.053l-13.157-4.313
					c-3.01-0.986-6.572,0.181-9.143,3.181l0.004,0.002c-0.451,0.41-0.877,0.874-1.263,1.396L42.473,67.006
					c-1.68,2.271-1.606,5.141,0.098,6.486l0.617,0.486c1.707,1.349,4.513,0.756,6.334-1.401l11.504-13.622l15.162,5.822
					c1.318,0.507,2.729,0.665,4.067,0.525c2.313,0.265,4.661-0.854,5.854-3.021l8.853-16.056
					C96.539,43.368,95.499,39.771,92.639,38.193z"/>
			</g>
		</g>
	</g>
	<polygon fill="#B2F0FF" points="32.5,48.931 50.199,34.67 32.5,20.41 32.5,26.82 16.5,26.82 16.5,41.82 32.5,41.82 	"/>
</g>
<linearGradient id="SVGID_2_" gradientUnits="userSpaceOnUse" x1="-383.5005" y1="1468.6846" x2="-383.5005" y2="1552.0071" gradientTransform="matrix(1 0 0 1 468 -703)">
	<stop  offset="0.5092" style="stop-color:#31ABFF;stop-opacity:0"/>
	<stop  offset="0.9018" style="stop-color:#31ABFF"/>
	<stop  offset="1" style="stop-color:#63E6FF"/>
</linearGradient>
<rect x="23.5" y="763.5" display="none" fill="url(#SVGID_2_)" stroke="#31ABFF" stroke-miterlimit="10" width="122" height="87"/>
<g display="none">
	<g display="inline">
		<g>
			<circle fill="#FFFFFF" cx="113.861" cy="789.944" r="8.235"/>
		</g>
		<g>
			<path fill="#FFFFFF" d="M116.139,801.373l-1.035-0.57c-2.859-1.577-6.457-0.535-8.035,2.323l-6.644,12.053l-13.157-4.313
				c-3.01-0.986-6.572,0.181-9.143,3.181l0.004,0.002c-0.451,0.41-0.877,0.874-1.263,1.396l-10.894,14.741
				c-1.68,2.271-1.606,5.141,0.098,6.486l0.617,0.486c1.707,1.349,4.513,0.756,6.334-1.401l11.504-13.622l15.162,5.822
				c1.318,0.507,2.729,0.665,4.067,0.525c2.313,0.265,4.661-0.854,5.854-3.021l8.853-16.056
				C120.039,806.548,118.999,802.951,116.139,801.373z"/>
		</g>
	</g>
</g>
<polygon display="none" fill="#FFFFFF" points="56,812.11 73.699,797.85 56,783.59 56,790 40,790 40,805 56,805 "/>
<g display="none">
	<g display="inline">
		<g display="none">
			<circle display="inline" fill="#31ABFF" cx="113.861" cy="789.944" r="8.235"/>
		</g>
		<g display="none">
			<path display="inline" fill="#31ABFF" d="M116.139,801.373l-1.035-0.57c-2.859-1.577-6.457-0.535-8.035,2.323l-6.644,12.053
				l-13.157-4.313c-3.01-0.986-6.572,0.181-9.143,3.181l0.004,0.002c-0.451,0.41-0.877,0.874-1.263,1.396l-10.894,14.741
				c-1.68,2.271-1.606,5.141,0.098,6.486l0.617,0.486c1.707,1.349,4.513,0.756,6.334-1.401l11.504-13.622l15.162,5.822
				c1.318,0.507,2.729,0.665,4.067,0.525c2.313,0.265,4.661-0.854,5.854-3.021l8.853-16.056
				C120.039,806.548,118.999,802.951,116.139,801.373z"/>
		</g>
	</g>
</g>
<polygon display="none" fill="#31ABFF" points="56,812.11 73.699,797.85 56,783.59 56,790 40,790 40,805 56,805 "/>
</svg>
