<?xml version="1.0" encoding="utf-8"?>
<!-- Generator: Adobe Illustrator 16.0.0, SVG Export Plug-In . SVG Version: 6.00 Build 0)  -->
<!DOCTYPE svg PUBLIC "-//W3C//DTD SVG 1.1//EN" "http://www.w3.org/Graphics/SVG/1.1/DTD/svg11.dtd">
<svg version="1.1" id="Layer_1" xmlns="http://www.w3.org/2000/svg" xmlns:xlink="http://www.w3.org/1999/xlink" x="0px" y="0px"
	 width="123px" height="88px" viewBox="0 0 123 88" enable-background="new 0 0 123 88" xml:space="preserve">
<linearGradient id="SVGID_1_" gradientUnits="userSpaceOnUse" x1="-342" y1="-996" x2="-342.0004" y2="-96.8916" gradientTransform="matrix(1 0 0 -1 702 -50)">
	<stop  offset="0" style="stop-color:#041724"/>
	<stop  offset="1" style="stop-color:#000000"/>
</linearGradient>
<rect display="none" fill="url(#SVGID_1_)" width="720" height="1001"/>
<rect x="24" y="876.898" display="none" fill="#31ABFF" fill-opacity="0.29" stroke="#31ABFF" stroke-width="0.8902" stroke-miterlimit="10" stroke-opacity="0.64" width="122" height="86.563"/>
<rect x="0.5" y="0.719" fill-opacity="0.29" stroke="#B2F0FF" stroke-width="0.8902" stroke-miterlimit="10" stroke-opacity="0.64" width="122" height="86.563"/>
<g>
	<g>
		<g>
			<circle fill="#B2F0FF" cx="90.361" cy="25.457" r="8.235"/>
		</g>
		<g>
			<path fill="#B2F0FF" d="M92.639,36.886l-1.035-0.57c-2.858-1.577-6.457-0.536-8.035,2.323l-6.644,12.052l-13.157-4.314
				c-3.01-0.984-6.572,0.184-9.143,3.184l0.004,0.002c-0.451,0.41-0.877,0.873-1.263,1.396L42.473,65.699
				c-1.68,2.271-1.606,5.139,0.098,6.486l0.617,0.483c1.707,1.351,4.513,0.758,6.334-1.399l11.504-13.621l15.162,5.821
				c1.318,0.507,2.729,0.664,4.067,0.523c2.313,0.266,4.661-0.854,5.854-3.021l8.853-16.057
				C96.539,42.061,95.499,38.464,92.639,36.886z"/>
		</g>
	</g>
</g>
<polygon fill="#B2F0FF" points="47.238,34.82 32.978,17.121 18.718,34.82 25.5,34.82 25.5,50.82 40.5,50.82 40.5,34.82 "/>
<linearGradient id="SVGID_2_" gradientUnits="userSpaceOnUse" x1="-617.5" y1="-927.6396" x2="-617.5" y2="-1012.9438" gradientTransform="matrix(1 0 0 -1 702 -50)">
	<stop  offset="0.5092" style="stop-color:#31ABFF;stop-opacity:0"/>
	<stop  offset="0.9018" style="stop-color:#31ABFF"/>
	<stop  offset="1" style="stop-color:#63E6FF"/>
</linearGradient>
<rect x="23.5" y="876.5" display="none" fill="url(#SVGID_2_)" stroke="#31ABFF" stroke-miterlimit="10" width="122" height="87"/>
<g display="none">
	<g display="inline">
		<g>
			<circle fill="#FFFFFF" cx="113.861" cy="901.636" r="8.235"/>
		</g>
		<g>
			<path fill="#FFFFFF" d="M116.139,913.065l-1.035-0.57c-2.858-1.577-6.457-0.536-8.035,2.323l-6.644,12.053l-13.157-4.315
				c-3.01-0.983-6.572,0.184-9.143,3.184l0.004,0.002c-0.451,0.41-0.877,0.873-1.263,1.396L65.973,941.88
				c-1.681,2.271-1.606,5.139,0.098,6.486l0.617,0.483c1.707,1.352,4.513,0.759,6.334-1.398l11.504-13.622l15.162,5.822
				c1.317,0.507,2.729,0.664,4.066,0.522c2.313,0.267,4.661-0.854,5.854-3.02l8.854-16.058
				C120.039,918.24,118.999,914.644,116.139,913.065z"/>
		</g>
	</g>
</g>
<polygon display="none" fill="#FFFFFF" points="70.738,911 56.478,893.301 42.218,911 49,911 49,927 64,927 64,911 "/>
<g display="none">
	<g display="inline">
		<g display="none">
			<circle display="inline" fill="#31ABFF" cx="113.861" cy="901.636" r="8.235"/>
		</g>
		<g display="none">
			<path display="inline" fill="#31ABFF" d="M116.139,913.065l-1.035-0.57c-2.858-1.577-6.457-0.536-8.035,2.323l-6.644,12.053
				l-13.157-4.315c-3.01-0.983-6.572,0.184-9.143,3.184l0.004,0.002c-0.451,0.41-0.877,0.873-1.263,1.396L65.973,941.88
				c-1.681,2.271-1.606,5.139,0.098,6.486l0.617,0.483c1.707,1.352,4.513,0.759,6.334-1.398l11.504-13.622l15.162,5.822
				c1.317,0.507,2.729,0.664,4.066,0.522c2.313,0.267,4.661-0.854,5.854-3.02l8.854-16.058
				C120.039,918.24,118.999,914.644,116.139,913.065z"/>
		</g>
	</g>
</g>
<polygon display="none" fill="#31ABFF" points="70.738,911 56.478,893.301 42.218,911 49,911 49,927 64,927 64,911 "/>
</svg>
