<?xml version="1.0" encoding="utf-8"?>
<!-- Generator: Adobe Illustrator 16.0.0, SVG Export Plug-In . SVG Version: 6.00 Build 0)  -->
<!DOCTYPE svg PUBLIC "-//W3C//DTD SVG 1.1//EN" "http://www.w3.org/Graphics/SVG/1.1/DTD/svg11.dtd">
<svg version="1.1" id="Layer_1" xmlns="http://www.w3.org/2000/svg" xmlns:xlink="http://www.w3.org/1999/xlink" x="0px" y="0px"
	 width="112px" height="88px" viewBox="0 0 112 88" enable-background="new 0 0 112 88" xml:space="preserve">
<linearGradient id="SVGID_1_" gradientUnits="userSpaceOnUse" x1="-107.9995" y1="1649" x2="-107.9997" y2="749.8912" gradientTransform="matrix(1 0 0 1 468 -703)">
	<stop  offset="0" style="stop-color:#041724"/>
	<stop  offset="1" style="stop-color:#000000"/>
</linearGradient>
<rect display="none" fill="url(#SVGID_1_)" width="720" height="1001"/>
<rect x="174.5" y="763.898" display="none" fill="#31ABFF" fill-opacity="0.29" stroke="#31ABFF" stroke-width="0.8472" stroke-miterlimit="10" stroke-opacity="0.64" width="111" height="87"/>
<g display="none">
	<g display="inline">
		<g>
			<defs>
				<rect id="SVGID_2_" x="152" y="346" width="158" height="232"/>
			</defs>
			<clipPath id="SVGID_3_">
				<use xlink:href="#SVGID_2_"  overflow="visible"/>
			</clipPath>
			<g clip-path="url(#SVGID_3_)">
				<text transform="matrix(1 0 0 1 160.3643 784.9795)" fill="#FFFFFF" font-family="'MyriadPro-Regular'" font-size="93.6032">20°</text>
				<text transform="matrix(1 0 0 1 160.3643 888.7236)" fill="#FFFFFF" font-family="'MyriadPro-Regular'" font-size="93.6032">21°</text>
				<text transform="matrix(1 0 0 1 160.3643 689.0361)" fill="#FFFFFF" font-family="'MyriadPro-Regular'" font-size="93.6032">19°</text>
				<text transform="matrix(1 0 0 1 160.3643 591.3809)" fill="#FFFFFF" font-family="'MyriadPro-Regular'" font-size="93.6032">18°</text>
				<text transform="matrix(1 0 0 1 160.3643 496.998)" fill="#FFFFFF" font-family="'MyriadPro-Regular'" font-size="93.6032">17°</text>
				<text transform="matrix(1 0 0 1 160.3643 403.3945)" fill="#FFFFFF" font-family="'MyriadPro-Regular'" font-size="93.6032">16°</text>
			</g>
		</g>
	</g>
</g>
<g>
	
		<rect x="0.5" y="0.5" fill-opacity="0.29" stroke="#B2F0FF" stroke-width="0.8472" stroke-miterlimit="10" stroke-opacity="0.64" width="111" height="87"/>
	<g>
		<g>
			<path fill="#B2F0FF" d="M38.333,47.863L36.622,53.5h-3.748l6.375-19.89h4.633l6.463,19.89h-3.896l-1.801-5.637H38.333z
				 M44.027,45.119l-1.563-4.898c-0.383-1.21-0.708-2.565-1.003-3.719h-0.059c-0.295,1.151-0.59,2.538-0.944,3.719l-1.535,4.898
				H44.027z"/>
			<path fill="#B2F0FF" d="M51.262,54.681l7.2-21.396H61l-7.201,21.396H51.262z"/>
			<path fill="#B2F0FF" d="M77.32,52.91c-0.854,0.44-2.743,0.885-5.135,0.885c-6.314,0-10.15-3.954-10.15-10.004
				c0-6.552,4.544-10.506,10.624-10.506c2.391,0,4.103,0.502,4.84,0.886l-0.797,2.892c-0.944-0.411-2.243-0.768-3.896-0.768
				c-4.043,0-6.966,2.538-6.966,7.319c0,4.366,2.567,7.171,6.937,7.171c1.476,0,3.01-0.295,3.955-0.738L77.32,52.91z"/>
		</g>
	</g>
</g>
<linearGradient id="SVGID_4_" gradientUnits="userSpaceOnUse" x1="-238.0005" y1="1468.6846" x2="-238.0005" y2="1552.0071" gradientTransform="matrix(1 0 0 1 468 -703)">
	<stop  offset="0.5092" style="stop-color:#31ABFF;stop-opacity:0"/>
	<stop  offset="0.9018" style="stop-color:#31ABFF"/>
	<stop  offset="1" style="stop-color:#63E6FF"/>
</linearGradient>
<rect x="174.5" y="763.5" display="none" fill="url(#SVGID_4_)" stroke="#31ABFF" stroke-miterlimit="10" width="111" height="87"/>
<g display="none">
	<g display="inline">
		<path display="none" fill="#FFFFFF" d="M212.333,810.863l-1.711,5.637h-3.748l6.375-19.89h4.633l6.463,19.89h-3.896l-1.801-5.637
			H212.333z M218.027,808.119l-1.563-4.898c-0.383-1.21-0.708-2.565-1.003-3.719h-0.059c-0.295,1.151-0.59,2.538-0.944,3.719
			l-1.535,4.898H218.027z"/>
		<path display="none" fill="#FFFFFF" d="M225.262,817.681l7.2-21.396H235l-7.201,21.396H225.262z"/>
		<path display="none" fill="#FFFFFF" d="M251.32,815.91c-0.854,0.44-2.743,0.885-5.135,0.885c-6.314,0-10.15-3.954-10.15-10.004
			c0-6.552,4.544-10.506,10.624-10.506c2.391,0,4.103,0.502,4.84,0.886l-0.797,2.892c-0.944-0.411-2.243-0.768-3.896-0.768
			c-4.043,0-6.966,2.538-6.966,7.319c0,4.366,2.567,7.171,6.937,7.171c1.476,0,3.01-0.295,3.955-0.738L251.32,815.91z"/>
	</g>
</g>
<g display="none">
	
		<text transform="matrix(1 0 0 1 206.2539 816.5)" display="inline" fill="#31ABFF" font-family="'MyriadPro-Semibold'" font-size="29.5171">A/C</text>
</g>
</svg>
