<?xml version="1.0" encoding="UTF-8" standalone="no"?>
<!-- Generator: Adobe Illustrator 16.0.0, SVG Export Plug-In . SVG Version: 6.00 Build 0)  -->

<svg
   xmlns:dc="http://purl.org/dc/elements/1.1/"
   xmlns:cc="http://creativecommons.org/ns#"
   xmlns:rdf="http://www.w3.org/1999/02/22-rdf-syntax-ns#"
   xmlns:svg="http://www.w3.org/2000/svg"
   xmlns="http://www.w3.org/2000/svg"
   xmlns:sodipodi="http://sodipodi.sourceforge.net/DTD/sodipodi-0.dtd"
   xmlns:inkscape="http://www.inkscape.org/namespaces/inkscape"
   version="1.1"
   id="Layer_1"
   x="0px"
   y="0px"
   width="112px"
   height="88px"
   viewBox="0 0 112 88"
   enable-background="new 0 0 112 88"
   xml:space="preserve"
   inkscape:version="0.48.4 r9939"
   sodipodi:docname="fan_control_circ_off.svg"><metadata
     id="metadata41"><rdf:RDF><cc:Work
         rdf:about=""><dc:format>image/svg+xml</dc:format><dc:type
           rdf:resource="http://purl.org/dc/dcmitype/StillImage" /><dc:title></dc:title></cc:Work></rdf:RDF></metadata><defs
     id="defs39"><filter
       id="filter3829"
       inkscape:label="Inner Glow"
       inkscape:menu="Shadows and Glows"
       inkscape:menu-tooltip="Adds a colorizable glow inside"
       color-interpolation-filters="sRGB"><feGaussianBlur
         id="feGaussianBlur3831"
         stdDeviation="12"
         result="result8" /><feComposite
         id="feComposite3833"
         in2="result8"
         result="result6"
         in="SourceGraphic"
         operator="in" /><feComposite
         id="feComposite3835"
         in2="result6"
         operator="in"
         result="result11" /><feFlood
         id="feFlood3837"
         result="result10"
         in="result11"
         flood-opacity="1"
         flood-color="rgb(83,181,206)" /><feBlend
         id="feBlend3839"
         in2="result10"
         mode="normal"
         in="result11"
         result="result12" /><feComposite
         id="feComposite3841"
         in2="SourceGraphic"
         result="result2"
         operator="in"
         in="result12" /></filter></defs><sodipodi:namedview
     pagecolor="#ffffff"
     bordercolor="#666666"
     borderopacity="1"
     objecttolerance="10"
     gridtolerance="10"
     guidetolerance="10"
     inkscape:pageopacity="0"
     inkscape:pageshadow="2"
     inkscape:window-width="922"
     inkscape:window-height="771"
     id="namedview37"
     showgrid="false"
     inkscape:zoom="3.6870568"
     inkscape:cx="4.4156844"
     inkscape:cy="44.840276"
     inkscape:window-x="696"
     inkscape:window-y="164"
     inkscape:window-maximized="0"
     inkscape:current-layer="Layer_1" /><linearGradient
     id="SVGID_1_"
     gradientUnits="userSpaceOnUse"
     x1="-107.9995"
     y1="1649"
     x2="-107.9997"
     y2="749.8912"
     gradientTransform="matrix(1 0 0 1 468 -703)"><stop
       offset="0"
       style="stop-color:#041724"
       id="stop4" /><stop
       offset="1"
       style="stop-color:#000000"
       id="stop6" /></linearGradient><rect
     display="none"
     fill="url(#SVGID_1_)"
     width="720"
     height="1001"
     id="rect8" /><rect
     x="436"
     y="763.898"
     display="none"
     fill="#31ABFF"
     fill-opacity="0.29"
     stroke="#31ABFF"
     stroke-width="0.8472"
     stroke-miterlimit="10"
     stroke-opacity="0.64"
     width="110.5"
     height="86.563"
     id="rect10" /><rect
     style="fill-opacity:1;stroke:#ffffff;stroke-width:0.84719997999999985;stroke-miterlimit:10;stroke-opacity:1;fill:#000000;opacity:0.80000000000000004;filter:url(#filter3829)"
     id="rect14"
     height="86.563004"
     width="110.5"
     stroke-miterlimit="10"
     y="0.71899998"
     x="0.75" /><path
     style="fill:#ffffff;fill-opacity:1"
     inkscape:connector-curvature="0"
     id="path16"
     d="m 78.881,63.463 c -3.802,0 -6.805,-2.762 -7.491,-6.643 H 34.5 l -0.288,-0.267 c -0.001,-10e-4 -0.14,-0.118 -0.378,-0.207 -0.67,3.74 -3.627,6.273 -7.49,6.273 -3.139,0 -5.975,-2.248 -7.109,-5.55 -0.758,-0.104 -2.006,-0.408 -2.383,-1.285 -0.2,-0.147 -0.755,-0.396 -1.169,-0.582 -0.405,-0.183 -0.849,-0.381 -1.28,-0.604 -2.414,-1.254 -1.729,-8.89 -1.722,-8.964 0.161,-1.384 0.531,-2.293 0.892,-3.176 0.177,-0.433 0.343,-0.843 0.481,-1.307 0.55,-1.818 1.523,-2.813 3.861,-3.943 2.149,-1.035 15.707,-2.548 18.307,-2.828 3.779,-2.869 9.729,-7.446 10.271,-8.022 1.157,-1.229 4.437,-2.538 8.232,-2.538 l 26.052,0.006 c 9.494,1.017 10.104,1.436 10.336,1.591 0.786,0.536 0.847,1.469 0.54,2.313 0.687,1.097 2.567,4.021 4.767,6.741 1.461,0.885 1.531,2.373 1.33,3.194 v 7.488 l 1,0.582 v 5.14 l -0.585,0.27 c -0.036,0.016 -3.613,1.644 -7.973,3.282 -0.97,0.362 -2.26,0.65 -3.696,0.83 -0.326,4.589 -3.617,8.206 -7.615,8.206 z m -6.626,-9.356 0.982,0.014 0.004,1.069 c 0.034,3.573 2.571,6.271 5.753,6.271 3.059,0 5.756,-3.186 5.756,-6.957 v -0.915 l 0.795,-0.23 c 1.619,-0.146 3.003,-0.431 4.001,-0.806 3.269,-1.229 6.028,-2.448 7.204,-2.971 v -2.697 l -1,-0.581 v -8.938 l 0.051,-0.153 c 0.061,-0.2 0.137,-0.747 -0.504,-1.084 l -0.181,-0.095 -0.129,-0.158 c -2.904,-3.563 -5.229,-7.402 -5.324,-7.563 l -0.311,-0.514 0.307,-0.515 c 0.04,-0.07 0.08,-0.161 0.109,-0.246 -1.272,-0.287 -5.417,-0.816 -9.151,-1.219 H 54.726 c -3.521,0 -6.149,1.243 -6.775,1.908 -0.832,0.884 -9.095,7.164 -10.74,8.414 l -0.222,0.168 -0.276,0.027 c -6.159,0.661 -16.474,1.973 -17.927,2.674 -1.999,0.966 -2.484,1.618 -2.817,2.721 -0.167,0.554 -0.357,1.025 -0.545,1.48 -0.322,0.792 -0.626,1.539 -0.756,2.651 -0.272,2.331 0.044,6.406 0.688,6.979 0.363,0.186 0.771,0.365 1.146,0.533 1.043,0.469 1.824,0.817 2.134,1.479 0.271,0.135 0.93,0.27 1.196,0.27 l 0.85,-0.081 0.274,0.816 c 0.726,2.803 2.939,4.761 5.389,4.761 3.197,0 5.402,-2.127 5.617,-5.419 l 0.054,-0.819 0.815,-0.105 c 1.106,-0.143 1.945,0.255 2.391,0.544 h 36.021 l -0.003,-0.64 1.015,-0.073 z" /><path
     style="fill:#ffffff;fill-opacity:1"
     inkscape:connector-curvature="0"
     id="path18"
     d="M 81.559,43.424 71.75,36.59 v 4.23 H 56.32 c -2.555,0 -3.57,-1.224 -3.57,-2 v -6 h -5 v 6.131 l 0.354,0.112 c 0.197,2.366 2.441,6.757 8.219,6.757 H 71.75 v 4.439 l 9.809,-6.835 z" /><linearGradient
     id="SVGID_2_"
     gradientUnits="userSpaceOnUse"
     x1="22.9995"
     y1="1468.6846"
     x2="22.9995"
     y2="1552.0071"
     gradientTransform="matrix(1 0 0 1 468 -703)"><stop
       offset="0.5092"
       style="stop-color:#31ABFF;stop-opacity:0"
       id="stop21" /><stop
       offset="0.9018"
       style="stop-color:#31ABFF"
       id="stop23" /><stop
       offset="1"
       style="stop-color:#63E6FF"
       id="stop25" /></linearGradient><rect
     x="435.5"
     y="763.5"
     display="none"
     fill="url(#SVGID_2_)"
     stroke="#31ABFF"
     stroke-miterlimit="10"
     width="111"
     height="87"
     id="rect27" /><path
     display="none"
     fill="#FFFFFF"
     d="M514.131,826.643c-3.802,0-6.805-2.762-7.491-6.643h-36.89l-0.288-0.267  c-0.001-0.001-0.14-0.118-0.378-0.207c-0.67,3.74-3.627,6.273-7.49,6.273c-3.139,0-5.975-2.248-7.109-5.55  c-0.758-0.104-2.006-0.408-2.383-1.285c-0.2-0.147-0.755-0.396-1.169-0.582c-0.405-0.183-0.849-0.381-1.28-0.604  c-2.414-1.254-1.729-8.89-1.722-8.964c0.161-1.384,0.531-2.293,0.892-3.176c0.177-0.433,0.343-0.843,0.481-1.307  c0.55-1.818,1.523-2.813,3.861-3.943c2.149-1.035,15.707-2.548,18.307-2.828c3.779-2.869,9.729-7.446,10.271-8.022  c1.157-1.229,4.437-2.538,8.232-2.538l26.052,0.006c9.494,1.017,10.104,1.436,10.336,1.591c0.786,0.536,0.847,1.469,0.54,2.313  c0.687,1.097,2.567,4.021,4.767,6.741c1.461,0.885,1.531,2.373,1.33,3.194v7.488l1,0.582v5.14l-0.585,0.27  c-0.036,0.016-3.613,1.644-7.973,3.282c-0.97,0.362-2.26,0.65-3.696,0.83C521.42,823.025,518.129,826.643,514.131,826.643z   M507.505,817.287l0.982,0.014l0.004,1.069c0.034,3.573,2.571,6.271,5.753,6.271c3.059,0,5.756-3.186,5.756-6.957v-0.915l0.795-0.23  c1.619-0.146,3.003-0.431,4.001-0.806c3.269-1.229,6.028-2.448,7.204-2.971v-2.697l-1-0.581v-8.938l0.051-0.153  c0.061-0.2,0.137-0.747-0.504-1.084l-0.181-0.095l-0.129-0.158c-2.904-3.563-5.229-7.402-5.324-7.563l-0.311-0.514l0.307-0.515  c0.04-0.07,0.08-0.161,0.109-0.246c-1.272-0.287-5.417-0.816-9.151-1.219h-25.892c-3.521,0-6.149,1.243-6.775,1.908  c-0.832,0.884-9.095,7.164-10.74,8.414l-0.222,0.168l-0.276,0.027c-6.159,0.661-16.474,1.973-17.927,2.674  c-1.999,0.966-2.484,1.618-2.817,2.721c-0.167,0.554-0.357,1.025-0.545,1.48c-0.322,0.792-0.626,1.539-0.756,2.651  c-0.272,2.331,0.044,6.406,0.688,6.979c0.363,0.186,0.771,0.365,1.146,0.533c1.043,0.469,1.824,0.817,2.134,1.479  c0.271,0.135,0.93,0.27,1.196,0.27l0.85-0.081l0.274,0.816c0.726,2.803,2.939,4.761,5.389,4.761c3.197,0,5.402-2.127,5.617-5.419  l0.054-0.819l0.815-0.105c1.106-0.143,1.945,0.255,2.391,0.544h36.021l-0.003-0.64L507.505,817.287z"
     id="path29" /><path
     display="none"
     fill="#FFFFFF"
     d="M516.809,806.604L507,799.77V804h-15.43c-2.555,0-3.57-1.224-3.57-2v-6h-5v6.131l0.354,0.112  c0.197,2.366,2.441,6.757,8.219,6.757H507v4.439L516.809,806.604z"
     id="path31" /><path
     display="none"
     fill="none"
     stroke="#31ABFF"
     stroke-width="2"
     stroke-miterlimit="10"
     d="M532,808.908v-8.2  c0,0,0.497-1.502-0.987-2.283c-2.894-3.552-5.243-7.45-5.243-7.45s0.663-1.119,0.029-1.553S515.921,788,515.921,788h-25.942  c-3.782,0-6.689,1.356-7.507,2.224c-0.814,0.867-10.614,8.304-10.614,8.304s-16.104,1.728-18.256,2.766  c-2.151,1.04-2.896,1.86-3.341,3.332c-0.443,1.474-1.113,2.401-1.337,4.308c-0.223,1.907-0.146,7.269,1.188,7.96  c1.336,0.692,2.746,1.118,2.895,1.642c0.148,0.52,1.631,0.773,2.076,0.773c0.021,0,0.074-0.007,0.156-0.015  c0.823,3.188,3.355,5.511,6.354,5.511c3.494,0,6.354-2.351,6.615-6.354c1.175-0.152,1.934,0.552,1.934,0.552h35.021h2.332  c0,0-0.003-0.743-0.003-0.713c0,4.284,2.972,7.354,6.64,7.354c3.669,0,6.644-3.674,6.644-7.957c0-0.019-0.003-0.135-0.003-0.149  c1.687-0.15,3.227-0.454,4.319-0.865c4.378-1.646,7.909-3.257,7.909-3.257v-3.922L532,808.908z"
     id="path33" /><path
     display="none"
     fill="#31ABFF"
     d="M516.809,806.604L507,799.77V804h-15.43c-2.555,0-3.57-1.224-3.57-2v-6h-5v6.131l0.354,0.112  c0.197,2.366,2.441,6.757,8.219,6.757H507v4.439L516.809,806.604z"
     id="path35" /><rect
     style="opacity:0.8;fill:none;stroke:#ffffff;stroke-width:0.84719998;stroke-miterlimit:10;stroke-opacity:1"
     id="rect14-6"
     height="86.563004"
     width="110.5"
     stroke-miterlimit="10"
     y="0.89658129"
     x="0.55821991" /></svg>