<?xml version="1.0" encoding="utf-8"?>
<!-- Generator: Adobe Illustrator 16.0.0, SVG Export Plug-In . SVG Version: 6.00 Build 0)  -->
<!DOCTYPE svg PUBLIC "-//W3C//DTD SVG 1.1//EN" "http://www.w3.org/Graphics/SVG/1.1/DTD/svg11.dtd">
<svg version="1.1" id="Layer_1" xmlns="http://www.w3.org/2000/svg" xmlns:xlink="http://www.w3.org/1999/xlink" x="0px" y="0px"
	 width="416px" height="81px" viewBox="0 0 416 81" enable-background="new 0 0 416 81" xml:space="preserve">
<g>
	
		<rect x="0.026" y="0.75" fill-opacity="0.29" stroke="#B2F0FF" stroke-width="0.6866" stroke-miterlimit="10" stroke-opacity="0.64" width="415.947" height="79.5"/>
	<path fill="none" stroke="#B2F0FF" stroke-width="6" stroke-miterlimit="10" d="M236.88,70.25h-57.737
		c-1.891,0-3.421-1.535-4.2-2.883s-0.683-3.441,0.265-5.079l28.867-50.193c0.945-1.638,2.381-2.671,3.938-2.671
		c1.557,0,2.992,0.892,3.937,2.529l28.869,49.979c0.945,1.637,1.041,4.101,0.265,5.446C240.301,68.729,238.771,70.25,236.88,70.25z"
		/>
	<polygon fill="none" stroke="#B2F0FF" stroke-width="6" stroke-miterlimit="10" points="186.349,61.25 207.932,23.866 
		229.515,61.25 	"/>
</g>
<g>
	<g>
		<defs>
			<rect id="SVGID_1_" x="280.783" y="949.047" width="517.319" height="21.96"/>
		</defs>
		<clipPath id="SVGID_2_">
			<use xlink:href="#SVGID_1_"  overflow="visible"/>
		</clipPath>
		<g clip-path="url(#SVGID_2_)">
			<text transform="matrix(1 0 0 1 280.7813 957.2031)"><tspan x="0" y="0" font-family="'Arial-BoldMT'" font-size="9">53</tspan><tspan x="10.064" y="0" font-family="'Arial-BoldMT'" font-size="9">b</tspan><tspan x="15.58" y="0" font-family="'Arial-BoldMT'" font-size="9">5</tspan><tspan x="20.613" y="0" font-family="'Arial-BoldMT'" font-size="9">c</tspan><tspan x="25.537" y="0" font-family="'Arial-BoldMT'" font-size="9">e</tspan></text>
		</g>
	</g>
	<g>
		<defs>
			<rect id="SVGID_3_" x="280.783" y="949.047" width="517.319" height="21.96"/>
		</defs>
		<clipPath id="SVGID_4_">
			<use xlink:href="#SVGID_3_"  overflow="visible"/>
		</clipPath>
		<g clip-path="url(#SVGID_4_)">
			<text transform="matrix(1 0 0 1 311.2734 957.2188)" font-family="'Calibri'" font-size="9.96"> </text>
		</g>
	</g>
</g>
</svg>
