<?xml version="1.0" encoding="utf-8"?>
<!-- Generator: Adobe Illustrator 16.0.0, SVG Export Plug-In . SVG Version: 6.00 Build 0)  -->
<!DOCTYPE svg PUBLIC "-//W3C//DTD SVG 1.1//EN" "http://www.w3.org/Graphics/SVG/1.1/DTD/svg11.dtd">
<svg version="1.1" id="Layer_1" xmlns="http://www.w3.org/2000/svg" xmlns:xlink="http://www.w3.org/1999/xlink" x="0px" y="0px"
	 width="159px" height="129px" viewBox="0 0 159 129" enable-background="new 0 0 159 129" xml:space="preserve">
<rect x="0.522" y="0.733" opacity="0.8" fill-opacity="0.29" stroke="#B2F0FF" stroke-miterlimit="10" stroke-opacity="0.64" enable-background="new    " width="157.957" height="127.535"/>
<path fill="#53B5CE" fill-opacity="0.29" stroke="#B2F0FF" stroke-width="0.8243" stroke-miterlimit="10" stroke-opacity="0.64" d="
	M63.616,80.979l-51.053-3.021c-3.593-0.146-5.474,3.104-4.104,7.17l2.857,10.824c1.527,4.528,5.986,9.041,9.908,9.041h62.59
	c5.252,0,6.744-6.563,6.744-11.152c-0.119-25.828,4.733-52.385,14.563-78.247c0.953-2.52-0.951-5.045-4.299-5.7
	c-1.814-0.356-3.633-0.713-5.449-1.069c-3.336-0.654-7.049,0.768-8.258,3.236C76.077,34.622,68.843,55.84,65.418,78.618
	C65.419,78.613,64.755,81.047,63.616,80.979z"/>
<path fill="#B2F0FF" d="M30.449,123.025c-18.859,0,15.646,0-3.215,0c10.184-23-10.184-45,0-67c18.859,0-15.645,0,3.215,0
	C20.265,78.025,40.632,100.025,30.449,123.025z"/>
<polygon fill="#B2F0FF" points="22.459,56.313 29.96,48.476 32.997,58.891 "/>
<path fill="#B2F0FF" d="M43.308,123.025c-18.86,0,15.646,0-3.215,0c10.184-23-10.186-45,0-67c18.858,0-15.646,0,3.215,0
	C33.124,78.025,53.492,100.025,43.308,123.025z"/>
<polygon fill="#B2F0FF" points="35.319,56.313 42.82,48.476 45.856,58.891 "/>
<path fill="#B2F0FF" d="M56.808,123.025c-18.858,0,15.646,0-3.213,0c10.184-23-10.186-45,0-67c18.858,0-15.646,0,3.213,0
	C46.625,78.025,66.994,100.025,56.808,123.025z"/>
<polygon fill="#B2F0FF" points="48.821,56.313 56.322,48.476 59.358,58.891 "/>
<path opacity="0.29" stroke="#FE9C00" stroke-miterlimit="10" enable-background="new    " d="M150.949,44.025v-22H110.51
	c-2.568,7-4.732,14-6.518,22H150.949z"/>
<path opacity="0.29" stroke="#FE9C00" stroke-miterlimit="10" enable-background="new    " d="M150.949,69.025v-21h-47.871
	c-1.629,7-2.879,14-3.729,21H150.949z"/>
<path opacity="0.29" stroke="#FE9C00" stroke-miterlimit="10" enable-background="new    " d="M97.936,95.025h53.017v-22H98.939
	c-0.67,7-1.002,13.871-0.973,20.758C97.969,94.18,97.951,95.025,97.936,95.025z"/>
</svg>
