<?xml version="1.0" encoding="utf-8"?>
<!-- Generator: Adobe Illustrator 16.0.0, SVG Export Plug-In . SVG Version: 6.00 Build 0)  -->
<!DOCTYPE svg PUBLIC "-//W3C//DTD SVG 1.1//EN" "http://www.w3.org/Graphics/SVG/1.1/DTD/svg11.dtd">
<svg version="1.1" id="Layer_1" xmlns="http://www.w3.org/2000/svg" xmlns:xlink="http://www.w3.org/1999/xlink" x="0px" y="0px"
	 width="159px" height="232px" viewBox="0 0 159 232" enable-background="new 0 0 159 232" xml:space="preserve">
<polygon fill-opacity="0.8" points="0.717,89.869 0.717,0.166 158.283,0.166 158.283,231.834 0.717,231.834 0.717,141.352 
	26.459,115.61 "/>
<g display="none">
	<g display="inline">
		<g>
			<g>
				<defs>
					<rect id="SVGID_1_" x="410" y="346" width="158" height="232"/>
				</defs>
				<clipPath id="SVGID_2_">
					<use xlink:href="#SVGID_1_"  overflow="visible"/>
				</clipPath>
				<g clip-path="url(#SVGID_2_)">
					<text transform="matrix(1 0 0 1 427.5938 489.4902)" fill="#FFFFFF" font-family="'MyriadPro-Regular'" font-size="93.6032">20°</text>
					<text transform="matrix(1 0 0 1 427.5938 593.2334)" fill="#FFFFFF" font-family="'MyriadPro-Regular'" font-size="93.6032">21°</text>
					<text transform="matrix(1 0 0 1 427.5938 393.5469)" fill="#FFFFFF" font-family="'MyriadPro-Regular'" font-size="93.6032">19°</text>
					<text transform="matrix(1 0 0 1 427.5938 295.8906)" fill="#FFFFFF" font-family="'MyriadPro-Regular'" font-size="93.6032">18°</text>
					<text transform="matrix(1 0 0 1 427.5938 201.5078)" fill="#FFFFFF" font-family="'MyriadPro-Regular'" font-size="93.6032">17°</text>
				</g>
			</g>
		</g>
	</g>
</g>
<linearGradient id="SVGID_3_" gradientUnits="userSpaceOnUse" x1="-1828.5005" y1="-111.6597" x2="-1828.5005" y2="-336.0165" gradientTransform="matrix(-1 0 0 -1 -1339 238)">
	<stop  offset="0" style="stop-color:#2175AD"/>
	<stop  offset="0.2822" style="stop-color:#2175AD;stop-opacity:0"/>
	<stop  offset="0.7055" style="stop-color:#2175AD;stop-opacity:0"/>
	<stop  offset="1" style="stop-color:#2175AD"/>
</linearGradient>
<polygon display="none" fill="url(#SVGID_3_)" stroke="#31ABFF" stroke-miterlimit="10" points="410.5,435.516 410.5,345.5 
	568.5,345.5 568.5,577.5 410.5,577.5 410.5,486.998 436.241,461.257 "/>
</svg>
