<?xml version="1.0" encoding="UTF-8" standalone="no"?>
<!-- Generator: Adobe Illustrator 16.0.0, SVG Export Plug-In . SVG Version: 6.00 Build 0)  -->

<svg
   xmlns:dc="http://purl.org/dc/elements/1.1/"
   xmlns:cc="http://creativecommons.org/ns#"
   xmlns:rdf="http://www.w3.org/1999/02/22-rdf-syntax-ns#"
   xmlns:svg="http://www.w3.org/2000/svg"
   xmlns="http://www.w3.org/2000/svg"
   xmlns:sodipodi="http://sodipodi.sourceforge.net/DTD/sodipodi-0.dtd"
   xmlns:inkscape="http://www.inkscape.org/namespaces/inkscape"
   version="1.1"
   id="Layer_1"
   x="0px"
   y="0px"
   width="68px"
   height="482px"
   viewBox="0 0 68 482"
   enable-background="new 0 0 68 482"
   xml:space="preserve"
   inkscape:version="0.48.4 r9939"
   sodipodi:docname="temp_bar_on_left.svg"><metadata
     id="metadata3871"><rdf:RDF><cc:Work
         rdf:about=""><dc:format>image/svg+xml</dc:format><dc:type
           rdf:resource="http://purl.org/dc/dcmitype/StillImage" /></cc:Work></rdf:RDF></metadata><defs
     id="defs3869"><filter
       id="filter3773"
       inkscape:label="Inner Glow"
       inkscape:menu="Shadows and Glows"
       inkscape:menu-tooltip="Adds a colorizable glow inside"
       color-interpolation-filters="sRGB"
       width="1.1799999999999999"
       height="0.99999999999999978"
       x="-0.11"
       y="-1.0408340855860843e-17"><feGaussianBlur
         id="feGaussianBlur3775"
         stdDeviation="10.615"
         result="result8" /><feComposite
         id="feComposite3777"
         in2="result8"
         result="result6"
         in="SourceGraphic"
         operator="in" /><feComposite
         id="feComposite3779"
         in2="result6"
         operator="in"
         result="result11" /><feFlood
         id="feFlood3781"
         result="result10"
         in="result11"
         flood-opacity="1"
         flood-color="rgb(255,255,178)" /><feBlend
         id="feBlend3783"
         mode="normal"
         in="result11"
         result="result12"
         in2="result10" /><feComposite
         id="feComposite3785"
         in2="SourceGraphic"
         result="result2"
         operator="in"
         in="result12" /></filter></defs><sodipodi:namedview
     pagecolor="#ffffff"
     bordercolor="#666666"
     borderopacity="1"
     objecttolerance="10"
     gridtolerance="10"
     guidetolerance="10"
     inkscape:pageopacity="0"
     inkscape:pageshadow="2"
     inkscape:window-width="1513"
     inkscape:window-height="859"
     id="namedview3867"
     showgrid="false"
     inkscape:zoom="1.9585063"
     inkscape:cx="-219.83983"
     inkscape:cy="308.5784"
     inkscape:window-x="75"
     inkscape:window-y="34"
     inkscape:window-maximized="0"
     inkscape:current-layer="Layer_1" /><linearGradient
     id="SVGID_1_"
     gradientUnits="userSpaceOnUse"
     x1="-107.9995"
     y1="1254.999"
     x2="-107.9997"
     y2="355.8898"
     gradientTransform="matrix(1 0 0 1 468 -309)"><stop
       offset="0"
       style="stop-color:#041724"
       id="stop3795" /><stop
       offset="1"
       style="stop-color:#000000"
       id="stop3797" /></linearGradient><rect
     display="none"
     fill="url(#SVGID_1_)"
     width="720"
     height="1001"
     id="rect3799" /><circle
     display="none"
     fill="#31ABFF"
     stroke="#31ABFF"
     stroke-width="0.5936"
     stroke-miterlimit="10"
     cx="87.502"
     cy="524.197"
     r="6.141"
     id="circle3801" /><circle
     display="none"
     fill="#31ABFF"
     fill-opacity="0.45"
     cx="87.502"
     cy="524.197"
     r="10.912"
     id="circle3803" /><line
     display="none"
     fill="none"
     stroke="#31ABFF"
     stroke-width="2"
     stroke-miterlimit="10"
     x1="88"
     y1="529"
     x2="88"
     y2="607"
     id="line3805" /><polyline
     display="none"
     fill="#31ABFF"
     fill-opacity="0.29"
     stroke="#31ABFF"
     stroke-width="0.2319"
     stroke-miterlimit="10"
     stroke-opacity="0.64"
     points="  64,596.969 64,606.938 21,606.938 21,581.018 64,581.018 64,596.969 "
     id="polyline3807" /><polyline
     display="none"
     fill="#31ABFF"
     fill-opacity="0.29"
     stroke="#31ABFF"
     stroke-width="0.2319"
     stroke-miterlimit="10"
     stroke-opacity="0.64"
     points="  64,561.967 64,571.938 21,571.938 21,546.016 64,546.016 64,561.967 "
     id="polyline3809" /><polyline
     display="none"
     fill="#31ABFF"
     fill-opacity="0.29"
     stroke="#31ABFF"
     stroke-width="0.2319"
     stroke-miterlimit="10"
     stroke-opacity="0.64"
     points="  64,526.966 64,536.935 21,536.935 21,511.015 64,511.015 64,526.966 "
     id="polyline3811" /><polyline
     display="none"
     fill="#31ABFF"
     fill-opacity="0.29"
     stroke="#31ABFF"
     stroke-width="0.2319"
     stroke-miterlimit="10"
     stroke-opacity="0.64"
     points="  64,491.964 64,501.934 21,501.934 21,476.014 64,476.014 64,491.964 "
     id="polyline3813" /><polyline
     display="none"
     fill="#31ABFF"
     fill-opacity="0.29"
     stroke="#31ABFF"
     stroke-width="0.2319"
     stroke-miterlimit="10"
     stroke-opacity="0.64"
     points="  64,456.963 64,466.932 21,466.932 21,441.012 64,441.012 64,456.963 "
     id="polyline3815" /><polyline
     display="none"
     fill="#31ABFF"
     fill-opacity="0.29"
     stroke="#31ABFF"
     stroke-width="0.2319"
     stroke-miterlimit="10"
     stroke-opacity="0.64"
     points="  64,421.961 64,431.931 21,431.931 21,406.01 64,406.01 64,421.961 "
     id="polyline3817" /><polyline
     display="none"
     fill="#31ABFF"
     fill-opacity="0.29"
     stroke="#31ABFF"
     stroke-width="0.2319"
     stroke-miterlimit="10"
     stroke-opacity="0.64"
     points="  64,386.96 64,396.929 21,396.929 21,371.009 64,371.009 64,386.96 "
     id="polyline3819" /><polyline
     display="none"
     fill="#31ABFF"
     fill-opacity="0.29"
     stroke="#31ABFF"
     stroke-width="0.2319"
     stroke-miterlimit="10"
     stroke-opacity="0.64"
     points="  64,351.959 64,361.928 21,361.928 21,336.008 64,336.008 64,351.959 "
     id="polyline3821" /><polyline
     display="none"
     fill="#31ABFF"
     fill-opacity="0.29"
     stroke="#31ABFF"
     stroke-width="0.2319"
     stroke-miterlimit="10"
     stroke-opacity="0.64"
     points="  64,316.958 64,326.927 21,326.927 21,301.007 64,301.007 64,316.958 "
     id="polyline3823" /><polyline
     display="none"
     fill="#31ABFF"
     fill-opacity="0.29"
     stroke="#31ABFF"
     stroke-width="0.2319"
     stroke-miterlimit="10"
     stroke-opacity="0.64"
     points="  64,281.956 64,291.925 21,291.925 21,266.005 64,266.005 64,281.956 "
     id="polyline3825" /><polyline
     display="none"
     fill="#31ABFF"
     fill-opacity="0.29"
     stroke="#31ABFF"
     stroke-width="0.2319"
     stroke-miterlimit="10"
     stroke-opacity="0.64"
     points="  64,246.955 64,256.924 21,256.924 21,231.004 64,231.004 64,246.955 "
     id="polyline3827" /><polyline
     display="none"
     fill="#31ABFF"
     fill-opacity="0.29"
     stroke="#31ABFF"
     stroke-width="0.2319"
     stroke-miterlimit="10"
     stroke-opacity="0.64"
     points="  64,211.954 64,221.923 21,221.923 21,196.003 64,196.003 64,211.954 "
     id="polyline3829" /><polyline
     display="none"
     fill="#31ABFF"
     fill-opacity="0.29"
     stroke="#31ABFF"
     stroke-width="0.2319"
     stroke-miterlimit="10"
     stroke-opacity="0.64"
     points="  64,176.952 64,186.921 21,186.921 21,161.001 64,161.001 64,176.952 "
     id="polyline3831" /><polyline
     display="none"
     fill="#31ABFF"
     fill-opacity="0.29"
     stroke="#31ABFF"
     stroke-width="0.2319"
     stroke-miterlimit="10"
     stroke-opacity="0.64"
     points="  64,141.951 64,151.92 21,151.92 21,126 64,126 64,141.951 "
     id="polyline3833" /><line
     display="none"
     fill="none"
     stroke="#31ABFF"
     stroke-miterlimit="10"
     x1="80.5"
     y1="126"
     x2="80.5"
     y2="607"
     id="line3835" /><rect
     x="66"
     y="0.5"
     fill="#FFD38C"
     width="2"
     height="482"
     id="rect3837" /><polyline
     stroke-miterlimit="10"
     points="43,15.451 43,25.42 0,25.42 0,-0.5 43,-0.5 43,15.451 "
     id="polyline3865"
     transform="matrix(0.92698774,0,0,18.485339,1.5697635,10.312433)"
     style="fill:#fe9c00;stroke:none;stroke-miterlimit:10;opacity:1;" /></svg>