<?xml version="1.0" encoding="UTF-8" standalone="no"?>
<!-- Generator: Adobe Illustrator 16.0.0, SVG Export Plug-In . SVG Version: 6.00 Build 0)  -->

<svg
   xmlns:dc="http://purl.org/dc/elements/1.1/"
   xmlns:cc="http://creativecommons.org/ns#"
   xmlns:rdf="http://www.w3.org/1999/02/22-rdf-syntax-ns#"
   xmlns:svg="http://www.w3.org/2000/svg"
   xmlns="http://www.w3.org/2000/svg"
   xmlns:sodipodi="http://sodipodi.sourceforge.net/DTD/sodipodi-0.dtd"
   xmlns:inkscape="http://www.inkscape.org/namespaces/inkscape"
   version="1.1"
   id="Layer_1"
   x="0px"
   y="0px"
   width="68px"
   height="481px"
   viewBox="0 0 68 481"
   enable-background="new 0 0 68 481"
   xml:space="preserve"
   inkscape:version="0.48.4 r9939"
   sodipodi:docname="temp_bar_on_right.svg"><metadata
     id="metadata80"><rdf:RDF><cc:Work
         rdf:about=""><dc:format>image/svg+xml</dc:format><dc:type
           rdf:resource="http://purl.org/dc/dcmitype/StillImage" /></cc:Work></rdf:RDF></metadata><defs
     id="defs78"><linearGradient
       id="linearGradient3780"><stop
         style="stop-color:#fe9c00;stop-opacity:1;"
         offset="0"
         id="stop3782" /><stop
         id="stop3788"
         offset="0.5"
         style="stop-color:#fe9c00;stop-opacity:0;" /><stop
         style="stop-color:#fe9c00;stop-opacity:1;"
         offset="1"
         id="stop3784" /></linearGradient><filter
       id="filter3773"
       inkscape:label="Inner Glow"
       inkscape:menu="Shadows and Glows"
       inkscape:menu-tooltip="Adds a colorizable glow inside"
       color-interpolation-filters="sRGB"
       width="1.1799999"
       height="1"
       x="-0.11"
       y="-1.0408341e-17"><feGaussianBlur
         id="feGaussianBlur3775"
         stdDeviation="10.615"
         result="result8" /><feComposite
         id="feComposite3777"
         in2="result8"
         result="result6"
         in="SourceGraphic"
         operator="in" /><feComposite
         id="feComposite3779"
         in2="result6"
         operator="in"
         result="result11" /><feFlood
         id="feFlood3781"
         result="result10"
         in="result11"
         flood-opacity="1"
         flood-color="rgb(255,255,178)" /><feBlend
         id="feBlend3783"
         mode="normal"
         in="result11"
         result="result12"
         in2="result10" /><feComposite
         id="feComposite3785"
         in2="SourceGraphic"
         result="result2"
         operator="in"
         in="result12" /></filter></defs><sodipodi:namedview
     pagecolor="#ffffff"
     bordercolor="#666666"
     borderopacity="1"
     objecttolerance="10"
     gridtolerance="10"
     guidetolerance="10"
     inkscape:pageopacity="0"
     inkscape:pageshadow="2"
     inkscape:window-width="1214"
     inkscape:window-height="736"
     id="namedview76"
     showgrid="false"
     inkscape:zoom="1.962578"
     inkscape:cx="-71.694992"
     inkscape:cy="256.91159"
     inkscape:window-x="75"
     inkscape:window-y="34"
     inkscape:window-maximized="0"
     inkscape:current-layer="Layer_1" /><linearGradient
     id="SVGID_1_"
     gradientUnits="userSpaceOnUse"
     x1="126.001"
     y1="100.0005"
     x2="126.0009"
     y2="999.1093"
     gradientTransform="matrix(1 0 0 -1 234 1046)"><stop
       offset="0"
       style="stop-color:#041724"
       id="stop4" /><stop
       offset="1"
       style="stop-color:#000000"
       id="stop6" /></linearGradient><rect
     display="none"
     fill="url(#SVGID_1_)"
     width="720"
     height="1001"
     id="rect8" /><circle
     display="none"
     fill="#31ABFF"
     stroke="#31ABFF"
     stroke-width="0.5936"
     stroke-miterlimit="10"
     cx="633.498"
     cy="420.198"
     r="6.141"
     id="circle10" /><circle
     display="none"
     fill="#31ABFF"
     fill-opacity="0.45"
     cx="633.498"
     cy="420.198"
     r="10.912"
     id="circle12" /><line
     display="none"
     fill="none"
     stroke="#31ABFF"
     stroke-width="2"
     stroke-miterlimit="10"
     x1="633"
     y1="419"
     x2="633"
     y2="607"
     id="line14" /><polyline
     display="none"
     fill="#31ABFF"
     fill-opacity="0.29"
     stroke="#31ABFF"
     stroke-width="0.2319"
     stroke-miterlimit="10"
     stroke-opacity="0.64"
     points="  657,596.969 657,606.938 700,606.938 700,581.018 657,581.018 657,596.969 "
     id="polyline16" /><polyline
     display="none"
     fill="#31ABFF"
     fill-opacity="0.29"
     stroke="#31ABFF"
     stroke-width="0.2319"
     stroke-miterlimit="10"
     stroke-opacity="0.64"
     points="  657,561.967 657,571.938 700,571.938 700,546.016 657,546.016 657,561.967 "
     id="polyline18" /><polyline
     display="none"
     fill="#31ABFF"
     fill-opacity="0.29"
     stroke="#31ABFF"
     stroke-width="0.2319"
     stroke-miterlimit="10"
     stroke-opacity="0.64"
     points="  657,526.966 657,536.935 700,536.935 700,511.015 657,511.015 657,526.966 "
     id="polyline20" /><polyline
     display="none"
     fill="#31ABFF"
     fill-opacity="0.29"
     stroke="#31ABFF"
     stroke-width="0.2319"
     stroke-miterlimit="10"
     stroke-opacity="0.64"
     points="  657,491.964 657,501.934 700,501.934 700,476.014 657,476.014 657,491.964 "
     id="polyline22" /><polyline
     display="none"
     fill="#31ABFF"
     fill-opacity="0.29"
     stroke="#31ABFF"
     stroke-width="0.2319"
     stroke-miterlimit="10"
     stroke-opacity="0.64"
     points="  657,456.963 657,466.932 700,466.932 700,441.012 657,441.012 657,456.963 "
     id="polyline24" /><polyline
     display="none"
     fill="#31ABFF"
     fill-opacity="0.29"
     stroke="#31ABFF"
     stroke-width="0.2319"
     stroke-miterlimit="10"
     stroke-opacity="0.64"
     points="  657,421.961 657,431.931 700,431.931 700,406.01 657,406.01 657,421.961 "
     id="polyline26" /><polyline
     display="none"
     fill="#31ABFF"
     fill-opacity="0.29"
     stroke="#31ABFF"
     stroke-width="0.2319"
     stroke-miterlimit="10"
     stroke-opacity="0.64"
     points="  657,386.96 657,396.929 700,396.929 700,371.009 657,371.009 657,386.96 "
     id="polyline28" /><polyline
     display="none"
     fill="#31ABFF"
     fill-opacity="0.29"
     stroke="#31ABFF"
     stroke-width="0.2319"
     stroke-miterlimit="10"
     stroke-opacity="0.64"
     points="  657,351.959 657,361.928 700,361.928 700,336.008 657,336.008 657,351.959 "
     id="polyline30" /><polyline
     display="none"
     fill="#31ABFF"
     fill-opacity="0.29"
     stroke="#31ABFF"
     stroke-width="0.2319"
     stroke-miterlimit="10"
     stroke-opacity="0.64"
     points="  657,316.958 657,326.927 700,326.927 700,301.007 657,301.007 657,316.958 "
     id="polyline32" /><polyline
     display="none"
     fill="#31ABFF"
     fill-opacity="0.29"
     stroke="#31ABFF"
     stroke-width="0.2319"
     stroke-miterlimit="10"
     stroke-opacity="0.64"
     points="  657,281.956 657,291.925 700,291.925 700,266.005 657,266.005 657,281.956 "
     id="polyline34" /><polyline
     display="none"
     fill="#31ABFF"
     fill-opacity="0.29"
     stroke="#31ABFF"
     stroke-width="0.2319"
     stroke-miterlimit="10"
     stroke-opacity="0.64"
     points="  657,246.955 657,256.924 700,256.924 700,231.004 657,231.004 657,246.955 "
     id="polyline36" /><polyline
     display="none"
     fill="#31ABFF"
     fill-opacity="0.29"
     stroke="#31ABFF"
     stroke-width="0.2319"
     stroke-miterlimit="10"
     stroke-opacity="0.64"
     points="  657,211.954 657,221.923 700,221.923 700,196.003 657,196.003 657,211.954 "
     id="polyline38" /><polyline
     display="none"
     fill="#31ABFF"
     fill-opacity="0.29"
     stroke="#31ABFF"
     stroke-width="0.2319"
     stroke-miterlimit="10"
     stroke-opacity="0.64"
     points="  657,176.952 657,186.921 700,186.921 700,161.001 657,161.001 657,176.952 "
     id="polyline40" /><polyline
     display="none"
     fill="#31ABFF"
     fill-opacity="0.29"
     stroke="#31ABFF"
     stroke-width="0.2319"
     stroke-miterlimit="10"
     stroke-opacity="0.64"
     points="  657,141.951 657,151.92 700,151.92 700,126 657,126 657,141.951 "
     id="polyline42" /><line
     display="none"
     fill="none"
     stroke="#31ABFF"
     stroke-miterlimit="10"
     x1="640.5"
     y1="126"
     x2="640.5"
     y2="607"
     id="line44" /><rect
     style="fill:#ffd38c"
     x="-3.426348"
     y="0.4046613"
     width="2"
     height="482"
     id="rect3837"
     transform="scale(-1,1)" /><polyline
     stroke-miterlimit="10"
     points="43,15.451 43,25.42 0,25.42 0,-0.5 43,-0.5 43,15.451 "
     id="polyline3865"
     transform="matrix(-0.92698774,0,0,18.485339,67.85659,10.217094)"
     style="fill:#fe9c00;stroke:none;fill-opacity:1" /></svg>